M48
; DRILL file {KiCad 7.0.8} date Sat Feb 24 17:00:46 2024
; FORMAT={-:-/ absolute / inch / decimal}
; #@! TF.CreationDate,2024-02-24T17:00:46+09:00
; #@! TF.GenerationSoftware,Kicad,Pcbnew,7.0.8
; #@! TF.FileFunction,NonPlated,1,2,NPTH
FMAT,2
INCH
; #@! TA.AperFunction,NonPlated,NPTH,ComponentDrill
T1C0.0256
; #@! TA.AperFunction,NonPlated,NPTH,ComponentDrill
T2C0.0295
; #@! TA.AperFunction,NonPlated,NPTH,ComponentDrill
T3C0.0669
; #@! TA.AperFunction,NonPlated,NPTH,ComponentDrill
T4C0.1575
%
G90
G05
T1
X2.0159Y-1.4426
X2.2435Y-1.4426
T2
X2.6702Y-1.4825
X2.6702Y-1.5455
T3
X2.604Y-2.8
X2.6047Y-2.0047
X3.004Y-2.8
X3.0047Y-2.0047
X3.4Y-2.0047
X3.4Y-2.8
X3.8Y-2.0047
X3.8Y-2.8
X4.1953Y-2.8
X4.196Y-2.006
X4.5953Y-2.8
X4.596Y-2.006
T4
X2.804Y-2.8
X2.8047Y-2.0047
X3.6Y-2.0047
X3.6Y-2.8
X4.3953Y-2.8
X4.396Y-2.006
T0
M30
