M48
; DRILL file {KiCad 7.0.8} date Sat Feb 24 17:00:46 2024
; FORMAT={-:-/ absolute / inch / decimal}
; #@! TF.CreationDate,2024-02-24T17:00:46+09:00
; #@! TF.GenerationSoftware,Kicad,Pcbnew,7.0.8
; #@! TF.FileFunction,Plated,1,2,PTH
FMAT,2
INCH
; #@! TA.AperFunction,Plated,PTH,ViaDrill
T1C0.0157
; #@! TA.AperFunction,Plated,PTH,ComponentDrill
T2C0.0197
; #@! TA.AperFunction,Plated,PTH,ComponentDrill
T3C0.0236
; #@! TA.AperFunction,Plated,PTH,ComponentDrill
T4C0.0315
; #@! TA.AperFunction,Plated,PTH,ComponentDrill
T5C0.0354
; #@! TA.AperFunction,Plated,PTH,ComponentDrill
T6C0.0394
; #@! TA.AperFunction,Plated,PTH,ComponentDrill
T7C0.0591
; #@! TA.AperFunction,Plated,PTH,ComponentDrill
T8C0.1260
%
G90
G05
T1
X1.83Y-2.5194
X1.8331Y-2.2961
X1.862Y-2.22
X1.8791Y-2.3495
X1.886Y-2.609
X1.896Y-2.44
X1.9Y-1.588
X1.9Y-2.075
X1.925Y-3.025
X1.955Y-2.032
X1.974Y-1.778
X2.0347Y-1.5335
X2.042Y-1.95
X2.057Y-2.244
X2.065Y-2.622
X2.0912Y-1.687
X2.114Y-2.259
X2.1175Y-2.6225
X2.1599Y-2.2542
X2.188Y-1.726
X2.1885Y-2.6245
X2.194Y-1.594
X2.218Y-1.778
X2.2237Y-1.5335
X2.225Y-2.975
X2.248Y-2.2317
X2.2877Y-1.5801
X2.3Y-2.223
X2.31Y-2.41
X2.312Y-1.898
X2.35Y-2.725
X2.37Y-2.18
X2.436Y-2.262
T2
X1.6378Y-1.4173
X1.6378Y-3.189
X1.6655Y-1.3505
X1.6655Y-1.4841
X1.6655Y-3.1222
X1.6655Y-3.2558
X1.7323Y-1.3228
X1.7323Y-1.5118
X1.7323Y-3.0945
X1.7323Y-3.2835
X1.7991Y-1.3505
X1.7991Y-1.4841
X1.7991Y-3.1222
X1.7991Y-3.2558
X1.8268Y-1.4173
X1.8268Y-3.189
X4.8268Y-1.4173
X4.8268Y-3.189
X4.8544Y-1.3505
X4.8544Y-1.4841
X4.8544Y-3.1222
X4.8544Y-3.2558
X4.9213Y-1.3228
X4.9213Y-1.5118
X4.9213Y-3.0945
X4.9213Y-3.2835
X4.9881Y-1.3505
X4.9881Y-1.4841
X4.9881Y-3.1222
X4.9881Y-3.2558
X5.0157Y-1.4173
X5.0157Y-3.189
T4
X1.6263Y-1.686
X1.6268Y-1.8096
X1.8232Y-1.686
X1.8237Y-1.8096
X2.9381Y-1.3718
X2.9398Y-1.514
X3.3381Y-1.3718
X3.3398Y-1.514
X3.6431Y-1.3728
X3.6437Y-1.5142
X4.0431Y-1.3728
X4.0437Y-1.5142
T5
X4.2716Y-1.514
X4.3716Y-1.514
T6
X1.644Y-2.0
X1.644Y-2.1
X1.644Y-2.2
X1.644Y-2.3
X1.644Y-2.4
X1.644Y-2.5
X1.644Y-2.6
X1.644Y-2.7
X1.644Y-2.8
X1.644Y-2.9
X1.744Y-2.0
X1.744Y-2.1
X1.744Y-2.2
X1.744Y-2.3
X1.744Y-2.4
X1.744Y-2.5
X1.744Y-2.6
X1.744Y-2.7
X1.744Y-2.8
X1.744Y-2.9
T7
X2.654Y-2.7
X2.6547Y-1.9047
X2.904Y-2.6
X2.9047Y-1.8047
X3.45Y-1.9047
X3.45Y-2.7
X3.7Y-1.8047
X3.7Y-2.6
X4.2453Y-2.7
X4.246Y-1.906
X4.4953Y-2.6
X4.496Y-1.806
T8
X1.7323Y-1.4173
X1.7323Y-3.189
X4.9213Y-1.4173
X4.9213Y-3.189
T3
G00X1.9596Y-1.3134
M15
G01X1.9596Y-1.2819
M16
G05
G00X1.9596Y-1.4839
M15
G01X1.9596Y-1.4406
M16
G05
G00X2.2998Y-1.3134
M15
G01X2.2998Y-1.2819
M16
G05
G00X2.2998Y-1.4839
M15
G01X2.2998Y-1.4406
M16
G05
T0
M30
