%TF.GenerationSoftware,KiCad,Pcbnew,7.0.8*%
%TF.CreationDate,2024-02-24T16:57:54+09:00*%
%TF.ProjectId,ch552t_tinypad_board,63683535-3274-45f7-9469-6e797061645f,rev?*%
%TF.SameCoordinates,Original*%
%TF.FileFunction,Paste,Top*%
%TF.FilePolarity,Positive*%
%FSLAX46Y46*%
G04 Gerber Fmt 4.6, Leading zero omitted, Abs format (unit mm)*
G04 Created by KiCad (PCBNEW 7.0.8) date 2024-02-24 16:57:54*
%MOMM*%
%LPD*%
G01*
G04 APERTURE LIST*
G04 Aperture macros list*
%AMRoundRect*
0 Rectangle with rounded corners*
0 $1 Rounding radius*
0 $2 $3 $4 $5 $6 $7 $8 $9 X,Y pos of 4 corners*
0 Add a 4 corners polygon primitive as box body*
4,1,4,$2,$3,$4,$5,$6,$7,$8,$9,$2,$3,0*
0 Add four circle primitives for the rounded corners*
1,1,$1+$1,$2,$3*
1,1,$1+$1,$4,$5*
1,1,$1+$1,$6,$7*
1,1,$1+$1,$8,$9*
0 Add four rect primitives between the rounded corners*
20,1,$1+$1,$2,$3,$4,$5,0*
20,1,$1+$1,$4,$5,$6,$7,0*
20,1,$1+$1,$6,$7,$8,$9,0*
20,1,$1+$1,$8,$9,$2,$3,0*%
G04 Aperture macros list end*
%ADD10RoundRect,0.237500X0.250000X0.237500X-0.250000X0.237500X-0.250000X-0.237500X0.250000X-0.237500X0*%
%ADD11RoundRect,0.100000X0.100000X-0.637500X0.100000X0.637500X-0.100000X0.637500X-0.100000X-0.637500X0*%
%ADD12RoundRect,0.237500X-0.250000X-0.237500X0.250000X-0.237500X0.250000X0.237500X-0.250000X0.237500X0*%
%ADD13RoundRect,0.150000X0.150000X0.425000X-0.150000X0.425000X-0.150000X-0.425000X0.150000X-0.425000X0*%
%ADD14RoundRect,0.075000X0.075000X0.500000X-0.075000X0.500000X-0.075000X-0.500000X0.075000X-0.500000X0*%
%ADD15O,1.000000X2.100000*%
%ADD16O,1.000000X1.800000*%
%ADD17RoundRect,0.237500X0.300000X0.237500X-0.300000X0.237500X-0.300000X-0.237500X0.300000X-0.237500X0*%
%ADD18R,1.050000X1.600000*%
G04 APERTURE END LIST*
D10*
%TO.C,R1*%
X98542100Y-38455600D03*
X96717100Y-38455600D03*
%TD*%
D11*
%TO.C,U1*%
X50516600Y-60622100D03*
X51166600Y-60622100D03*
X51816600Y-60622100D03*
X52466600Y-60622100D03*
X53116600Y-60622100D03*
X53766600Y-60622100D03*
X54416600Y-60622100D03*
X55066600Y-60622100D03*
X55716600Y-60622100D03*
X56366600Y-60622100D03*
X56366600Y-54897100D03*
X55716600Y-54897100D03*
X55066600Y-54897100D03*
X54416600Y-54897100D03*
X53766600Y-54897100D03*
X53116600Y-54897100D03*
X52466600Y-54897100D03*
X51816600Y-54897100D03*
X51166600Y-54897100D03*
X50516600Y-54897100D03*
%TD*%
D12*
%TO.C,R3*%
X78794600Y-34848800D03*
X80619600Y-34848800D03*
%TD*%
D10*
%TO.C,R2*%
X80664300Y-38449500D03*
X78839300Y-38449500D03*
%TD*%
D13*
%TO.C,J2*%
X57294000Y-37716000D03*
X56494000Y-37716000D03*
D14*
X55344000Y-37716000D03*
X54344000Y-37716000D03*
X53844000Y-37716000D03*
X52844000Y-37716000D03*
D13*
X51694000Y-37716000D03*
X50894000Y-37716000D03*
D14*
X52344000Y-37716000D03*
X53344000Y-37716000D03*
X54844000Y-37716000D03*
X55844000Y-37716000D03*
D15*
X58414000Y-37141000D03*
D16*
X58414000Y-32961000D03*
D15*
X49774000Y-37141000D03*
D16*
X49774000Y-32961000D03*
%TD*%
D17*
%TO.C,C1*%
X44666706Y-42834400D03*
X42941706Y-42834400D03*
%TD*%
D12*
%TO.C,R4*%
X96701600Y-34874200D03*
X98526600Y-34874200D03*
%TD*%
D17*
%TO.C,C2*%
X44678600Y-45974000D03*
X42953600Y-45974000D03*
%TD*%
D18*
%TO.C,SW7*%
X65622876Y-38455600D03*
X70022876Y-38455600D03*
%TD*%
M02*
