%TF.GenerationSoftware,KiCad,Pcbnew,7.0.8*%
%TF.CreationDate,2024-02-24T16:57:54+09:00*%
%TF.ProjectId,ch552t_tinypad_board,63683535-3274-45f7-9469-6e797061645f,rev?*%
%TF.SameCoordinates,Original*%
%TF.FileFunction,Legend,Bot*%
%TF.FilePolarity,Positive*%
%FSLAX46Y46*%
G04 Gerber Fmt 4.6, Leading zero omitted, Abs format (unit mm)*
G04 Created by KiCad (PCBNEW 7.0.8) date 2024-02-24 16:57:54*
%MOMM*%
%LPD*%
G01*
G04 APERTURE LIST*
%ADD10C,0.150000*%
%ADD11C,0.200000*%
G04 APERTURE END LIST*
D10*
X118820363Y-75503628D02*
X117644173Y-75503628D01*
X118187030Y-74932200D02*
X118187030Y-77027438D01*
X118187030Y-75789342D02*
X117825125Y-76265533D01*
X116829887Y-76265533D02*
X116467982Y-77027438D01*
X117734649Y-74836961D02*
X118820363Y-75027438D01*
X118187030Y-75598866D02*
X118548935Y-76265533D01*
X118548935Y-76265533D02*
X118820363Y-76551247D01*
X117101316Y-74836961D02*
X117644173Y-76932200D01*
X117644173Y-76932200D02*
X116648935Y-76741723D01*
X115925125Y-75408390D02*
X113753696Y-75408390D01*
X116015601Y-77027438D02*
X113663220Y-77027438D01*
X114839411Y-74741723D02*
X114839411Y-75408390D01*
X114206077Y-75598866D02*
X114567982Y-77027438D01*
X115472744Y-75694104D02*
X115291792Y-76741723D01*
X113120363Y-75408390D02*
X110948934Y-75408390D01*
X112577506Y-76551247D02*
X111491792Y-76551247D01*
X112034649Y-74741723D02*
X112034649Y-77027438D01*
X112034649Y-75408390D02*
X112215601Y-75694104D01*
X112215601Y-75694104D02*
X112939411Y-76456009D01*
X112939411Y-76456009D02*
X113210839Y-76551247D01*
X112034649Y-75408390D02*
X111853696Y-75789342D01*
X111853696Y-75789342D02*
X111220363Y-76360771D01*
X111220363Y-76360771D02*
X110858458Y-76551247D01*
X109501315Y-75408390D02*
X108958458Y-75408390D01*
X109501315Y-75884580D02*
X108958458Y-75884580D01*
X109501315Y-74836961D02*
X109501315Y-76836961D01*
X109501315Y-74836961D02*
X108958458Y-74836961D01*
X108958458Y-74836961D02*
X108958458Y-75884580D01*
X108687030Y-74836961D02*
X108687030Y-77027438D01*
X109863220Y-76551247D02*
X110315601Y-77027438D01*
X109953696Y-74741723D02*
X110315601Y-75313152D01*
X110315601Y-75313152D02*
X110044172Y-75694104D01*
X110044172Y-75694104D02*
X110225125Y-76170295D01*
X109772744Y-75313152D02*
X110134649Y-75979819D01*
X109772744Y-76075057D02*
X110044172Y-76836961D01*
X108687030Y-74932200D02*
X108053696Y-74932200D01*
X108053696Y-74932200D02*
X108325125Y-75694104D01*
X108325125Y-75694104D02*
X108053696Y-76170295D01*
X108053696Y-76170295D02*
X108053696Y-76551247D01*
X108053696Y-76551247D02*
X108506077Y-76646485D01*
X109682268Y-75789342D02*
X109953696Y-76646485D01*
X109772744Y-76075057D02*
X110406077Y-76265533D01*
X109139410Y-76170295D02*
X108867982Y-76741723D01*
X108867982Y-76741723D02*
X109682268Y-76836961D01*
X107601315Y-76170295D02*
X105248934Y-76170295D01*
X107601315Y-75217914D02*
X107601315Y-76360771D01*
X106425125Y-74741723D02*
X106425125Y-77027438D01*
X107601315Y-75217914D02*
X105248934Y-75217914D01*
X105248934Y-75217914D02*
X105248934Y-76265533D01*
X104796553Y-76265533D02*
X102444172Y-76265533D01*
X104163220Y-77027438D02*
X103620363Y-77027438D01*
X104706077Y-75217914D02*
X104706077Y-75694104D01*
X103620363Y-76075057D02*
X103620363Y-77027438D01*
X104706077Y-75217914D02*
X102534648Y-75217914D01*
X102534648Y-75217914D02*
X102534648Y-75694104D01*
X104525125Y-74836961D02*
X104253696Y-75122676D01*
X102715601Y-74836961D02*
X103077506Y-75217914D01*
X103710839Y-74741723D02*
X103620363Y-75122676D01*
X104344172Y-75694104D02*
X102896553Y-75694104D01*
X102896553Y-75694104D02*
X103620363Y-75979819D01*
X101087029Y-75217914D02*
X99639410Y-75217914D01*
X101991791Y-75313152D02*
X101177505Y-75313152D01*
X101539410Y-74741723D02*
X101539410Y-77027438D01*
X100363220Y-74741723D02*
X100363220Y-75122676D01*
X101539410Y-75694104D02*
X101177505Y-76075057D01*
X100091791Y-75408390D02*
X99639410Y-75884580D01*
X100725124Y-75503628D02*
X101087029Y-75884580D01*
X100725124Y-75884580D02*
X100544172Y-76360771D01*
X100544172Y-76360771D02*
X100001315Y-76836961D01*
X100001315Y-76836961D02*
X99639410Y-77027438D01*
X101539410Y-75408390D02*
X101991791Y-76456009D01*
X100001315Y-75884580D02*
X100272744Y-76360771D01*
X100272744Y-76360771D02*
X100634648Y-76836961D01*
X100634648Y-76836961D02*
X101087029Y-77027438D01*
X101539410Y-75217914D02*
X101810839Y-76265533D01*
X98463220Y-75979819D02*
X98282267Y-75979819D01*
X98282267Y-75979819D02*
X98191791Y-76075057D01*
X98191791Y-76075057D02*
X98191791Y-76265533D01*
X98191791Y-76265533D02*
X98282267Y-76360771D01*
X98282267Y-76360771D02*
X98463220Y-76360771D01*
X98463220Y-76360771D02*
X98553696Y-76265533D01*
X98553696Y-76265533D02*
X98553696Y-76075057D01*
X98553696Y-76075057D02*
X98463220Y-75979819D01*
X97196553Y-75027438D02*
X94844172Y-75027438D01*
X96744172Y-75694104D02*
X95296553Y-75694104D01*
X95477506Y-77027438D02*
X94934648Y-77027438D01*
X97015601Y-76075057D02*
X97015601Y-77027438D01*
X96744172Y-75313152D02*
X96744172Y-75694104D01*
X96020363Y-74741723D02*
X96020363Y-75027438D01*
X96744172Y-75313152D02*
X95296553Y-75313152D01*
X95296553Y-75313152D02*
X95296553Y-75694104D01*
X97015601Y-76075057D02*
X94934648Y-76075057D01*
X94934648Y-76075057D02*
X94934648Y-77027438D01*
X96563220Y-76360771D02*
X95477506Y-76360771D01*
X95477506Y-76360771D02*
X95477506Y-76741723D01*
X95477506Y-76741723D02*
X96563220Y-76741723D01*
X96563220Y-76741723D02*
X96563220Y-76360771D01*
X94120363Y-75122676D02*
X93306077Y-75122676D01*
X93125124Y-75122676D02*
X92039410Y-75122676D01*
X94120363Y-75598866D02*
X92310839Y-75598866D01*
X94391791Y-75979819D02*
X92039410Y-75979819D01*
X94301315Y-76360771D02*
X92129886Y-76360771D01*
X93125124Y-77027438D02*
X92672744Y-77027438D01*
X93215601Y-75313152D02*
X93215601Y-75979819D01*
X92672744Y-75979819D02*
X92672744Y-77027438D01*
X93758458Y-76551247D02*
X93487029Y-76836961D01*
X92672744Y-75122676D02*
X92672744Y-75313152D01*
X93034648Y-74932200D02*
X93396553Y-75313152D01*
X93939410Y-75122676D02*
X93758458Y-75313152D01*
X94120363Y-74741723D02*
X94301315Y-75313152D01*
X91587029Y-76265533D02*
X89234648Y-76265533D01*
X90953696Y-77027438D02*
X90410839Y-77027438D01*
X91496553Y-75217914D02*
X91496553Y-75694104D01*
X90410839Y-76075057D02*
X90410839Y-77027438D01*
X91496553Y-75217914D02*
X89325124Y-75217914D01*
X89325124Y-75217914D02*
X89325124Y-75694104D01*
X91315601Y-74836961D02*
X91044172Y-75122676D01*
X89506077Y-74836961D02*
X89867982Y-75217914D01*
X90501315Y-74741723D02*
X90410839Y-75122676D01*
X91134648Y-75694104D02*
X89687029Y-75694104D01*
X89687029Y-75694104D02*
X90410839Y-75979819D01*
X87877505Y-75217914D02*
X86429886Y-75217914D01*
X88782267Y-75313152D02*
X87967981Y-75313152D01*
X88329886Y-74741723D02*
X88329886Y-77027438D01*
X87153696Y-74741723D02*
X87153696Y-75122676D01*
X88329886Y-75694104D02*
X87967981Y-76075057D01*
X86882267Y-75408390D02*
X86429886Y-75884580D01*
X87515600Y-75503628D02*
X87877505Y-75884580D01*
X87515600Y-75884580D02*
X87334648Y-76360771D01*
X87334648Y-76360771D02*
X86791791Y-76836961D01*
X86791791Y-76836961D02*
X86429886Y-77027438D01*
X88329886Y-75408390D02*
X88782267Y-76456009D01*
X86791791Y-75884580D02*
X87063220Y-76360771D01*
X87063220Y-76360771D02*
X87425124Y-76836961D01*
X87425124Y-76836961D02*
X87877505Y-77027438D01*
X88329886Y-75217914D02*
X88601315Y-76265533D01*
X118639411Y-78628390D02*
X117463220Y-78628390D01*
X117463220Y-78628390D02*
X117644173Y-79009342D01*
X117644173Y-79009342D02*
X117825125Y-79295057D01*
X117825125Y-79295057D02*
X118006077Y-79485533D01*
X118367982Y-79199819D02*
X118096554Y-79485533D01*
X118096554Y-79485533D02*
X118006077Y-79676009D01*
X118006077Y-79676009D02*
X117825125Y-79961723D01*
X116015601Y-78818866D02*
X116015601Y-80247438D01*
X115563220Y-78152200D02*
X115744173Y-78437914D01*
X115744173Y-78437914D02*
X116015601Y-78818866D01*
X116015601Y-78818866D02*
X116377506Y-79104580D01*
X116377506Y-79104580D02*
X116648935Y-79295057D01*
X114567983Y-78533152D02*
X113482268Y-78533152D01*
X113482268Y-78533152D02*
X113482268Y-79866485D01*
X113482268Y-79866485D02*
X114567983Y-79866485D01*
X112577507Y-78437914D02*
X112215602Y-78818866D01*
X112577507Y-79961723D02*
X112125126Y-79866485D01*
X112125126Y-79866485D02*
X111853697Y-79580771D01*
X111853697Y-79580771D02*
X111672745Y-79295057D01*
X111672745Y-79295057D02*
X111491792Y-78628390D01*
X110767983Y-78342676D02*
X109591792Y-78342676D01*
X110858459Y-79009342D02*
X109501316Y-79009342D01*
X110677507Y-80056961D02*
X109772745Y-80056961D01*
X110677507Y-79390295D02*
X110677507Y-80247438D01*
X110225126Y-77961723D02*
X110225126Y-78342676D01*
X110677507Y-79390295D02*
X109772745Y-79390295D01*
X109772745Y-79390295D02*
X109682269Y-80247438D01*
X109320364Y-78152200D02*
X109320364Y-80247438D01*
X110587031Y-78533152D02*
X110496554Y-78818866D01*
X109772745Y-78437914D02*
X109953697Y-78914104D01*
X109320364Y-78152200D02*
X108506078Y-78152200D01*
X108506078Y-78152200D02*
X108958459Y-78914104D01*
X108958459Y-78914104D02*
X108596554Y-79199819D01*
X108596554Y-79199819D02*
X108506078Y-79485533D01*
X108506078Y-79485533D02*
X108506078Y-79866485D01*
X108506078Y-79866485D02*
X108958459Y-79866485D01*
X106425126Y-78152200D02*
X104525126Y-78152200D01*
X106334650Y-78723628D02*
X105791792Y-78723628D01*
X105248935Y-78723628D02*
X104615602Y-78723628D01*
X106425126Y-79009342D02*
X105791792Y-79009342D01*
X105248935Y-79009342D02*
X104525126Y-79009342D01*
X106334650Y-79580771D02*
X104525126Y-79580771D01*
X106334650Y-79961723D02*
X104525126Y-79961723D01*
X105429888Y-80247438D02*
X104344173Y-80247438D01*
X106606078Y-78437914D02*
X106606078Y-78818866D01*
X106334650Y-79295057D02*
X106334650Y-80056961D01*
X105520364Y-78152200D02*
X105520364Y-79104580D01*
X105429888Y-79295057D02*
X105429888Y-80247438D01*
X106334650Y-79295057D02*
X104525126Y-79295057D01*
X104525126Y-79295057D02*
X104525126Y-79961723D01*
X106606078Y-78437914D02*
X104344173Y-78437914D01*
X104344173Y-78437914D02*
X104344173Y-78818866D01*
X104253697Y-79961723D02*
X104344173Y-80247438D01*
X103801316Y-79199819D02*
X101448935Y-79199819D01*
X103167983Y-80247438D02*
X102625126Y-80247438D01*
X102625126Y-78723628D02*
X102625126Y-80247438D01*
X103529888Y-78247438D02*
X101720364Y-78247438D01*
X101720364Y-78247438D02*
X101991792Y-78437914D01*
X101991792Y-78437914D02*
X102625126Y-78723628D01*
X100906078Y-78342676D02*
X98734649Y-78342676D01*
X100996554Y-80247438D02*
X98644173Y-80247438D01*
X99820364Y-78342676D02*
X99820364Y-80247438D01*
X97106078Y-78533152D02*
X95839411Y-78533152D01*
X96744173Y-79009342D02*
X95839411Y-79009342D01*
X96744173Y-79580771D02*
X95839411Y-79580771D01*
X97739411Y-78437914D02*
X97739411Y-80247438D01*
X96744173Y-78437914D02*
X96744173Y-80247438D01*
X97558459Y-78056961D02*
X97829887Y-78628390D01*
X97829887Y-78628390D02*
X98191792Y-79009342D01*
X96925125Y-78056961D02*
X97196554Y-78723628D01*
X97196554Y-78723628D02*
X97467983Y-79009342D01*
X93939411Y-78152200D02*
X93125125Y-78152200D01*
X95387030Y-78152200D02*
X94663221Y-78152200D01*
X95296554Y-79009342D02*
X94663221Y-79009342D01*
X93848935Y-79104580D02*
X93125125Y-79104580D01*
X94120363Y-80152200D02*
X93034649Y-80152200D01*
X95025125Y-78152200D02*
X95025125Y-79866485D01*
X94482268Y-78247438D02*
X94482268Y-79390295D01*
X93487030Y-78152200D02*
X93487030Y-80152200D01*
X94210840Y-79866485D02*
X94572744Y-80247438D01*
X94572744Y-79771247D02*
X95387030Y-79961723D01*
X94029887Y-77961723D02*
X94029887Y-79295057D01*
X94029887Y-79295057D02*
X94210840Y-79866485D01*
D11*
X111496993Y-82231885D02*
X111573183Y-82155695D01*
X111573183Y-82155695D02*
X111725564Y-82079504D01*
X111725564Y-82079504D02*
X111877945Y-82079504D01*
X111877945Y-82079504D02*
X112030326Y-82155695D01*
X112030326Y-82155695D02*
X112106517Y-82231885D01*
X112106517Y-82231885D02*
X112182707Y-82384266D01*
X112182707Y-82384266D02*
X112182707Y-82536647D01*
X112182707Y-82536647D02*
X112106517Y-82689028D01*
X112106517Y-82689028D02*
X112030326Y-82765219D01*
X112030326Y-82765219D02*
X111877945Y-82841409D01*
X111877945Y-82841409D02*
X111725564Y-82841409D01*
X111725564Y-82841409D02*
X111573183Y-82765219D01*
X111573183Y-82765219D02*
X111496993Y-82689028D01*
X111496993Y-82079504D02*
X111496993Y-82689028D01*
X111496993Y-82689028D02*
X111420802Y-82765219D01*
X111420802Y-82765219D02*
X111344612Y-82765219D01*
X111344612Y-82765219D02*
X111192231Y-82689028D01*
X111192231Y-82689028D02*
X111116041Y-82536647D01*
X111116041Y-82536647D02*
X111116041Y-82155695D01*
X111116041Y-82155695D02*
X111268422Y-81927123D01*
X111268422Y-81927123D02*
X111496993Y-81774742D01*
X111496993Y-81774742D02*
X111801755Y-81698552D01*
X111801755Y-81698552D02*
X112106517Y-81774742D01*
X112106517Y-81774742D02*
X112335088Y-81927123D01*
X112335088Y-81927123D02*
X112487469Y-82155695D01*
X112487469Y-82155695D02*
X112563660Y-82460457D01*
X112563660Y-82460457D02*
X112487469Y-82765219D01*
X112487469Y-82765219D02*
X112335088Y-82993790D01*
X112335088Y-82993790D02*
X112106517Y-83146171D01*
X112106517Y-83146171D02*
X111801755Y-83222361D01*
X111801755Y-83222361D02*
X111496993Y-83146171D01*
X111496993Y-83146171D02*
X111268422Y-82993790D01*
X110430326Y-82993790D02*
X110430326Y-81393790D01*
X110430326Y-82155695D02*
X109516040Y-82155695D01*
X109516040Y-82993790D02*
X109516040Y-81393790D01*
X108525565Y-82993790D02*
X108677946Y-82917600D01*
X108677946Y-82917600D02*
X108754136Y-82841409D01*
X108754136Y-82841409D02*
X108830327Y-82689028D01*
X108830327Y-82689028D02*
X108830327Y-82231885D01*
X108830327Y-82231885D02*
X108754136Y-82079504D01*
X108754136Y-82079504D02*
X108677946Y-82003314D01*
X108677946Y-82003314D02*
X108525565Y-81927123D01*
X108525565Y-81927123D02*
X108296993Y-81927123D01*
X108296993Y-81927123D02*
X108144612Y-82003314D01*
X108144612Y-82003314D02*
X108068422Y-82079504D01*
X108068422Y-82079504D02*
X107992231Y-82231885D01*
X107992231Y-82231885D02*
X107992231Y-82689028D01*
X107992231Y-82689028D02*
X108068422Y-82841409D01*
X108068422Y-82841409D02*
X108144612Y-82917600D01*
X108144612Y-82917600D02*
X108296993Y-82993790D01*
X108296993Y-82993790D02*
X108525565Y-82993790D01*
X107306517Y-81927123D02*
X107306517Y-82993790D01*
X107306517Y-82079504D02*
X107230327Y-82003314D01*
X107230327Y-82003314D02*
X107077946Y-81927123D01*
X107077946Y-81927123D02*
X106849374Y-81927123D01*
X106849374Y-81927123D02*
X106696993Y-82003314D01*
X106696993Y-82003314D02*
X106620803Y-82155695D01*
X106620803Y-82155695D02*
X106620803Y-82993790D01*
X105173184Y-81927123D02*
X105173184Y-83222361D01*
X105173184Y-83222361D02*
X105249374Y-83374742D01*
X105249374Y-83374742D02*
X105325565Y-83450933D01*
X105325565Y-83450933D02*
X105477946Y-83527123D01*
X105477946Y-83527123D02*
X105706517Y-83527123D01*
X105706517Y-83527123D02*
X105858898Y-83450933D01*
X105173184Y-82917600D02*
X105325565Y-82993790D01*
X105325565Y-82993790D02*
X105630327Y-82993790D01*
X105630327Y-82993790D02*
X105782708Y-82917600D01*
X105782708Y-82917600D02*
X105858898Y-82841409D01*
X105858898Y-82841409D02*
X105935089Y-82689028D01*
X105935089Y-82689028D02*
X105935089Y-82231885D01*
X105935089Y-82231885D02*
X105858898Y-82079504D01*
X105858898Y-82079504D02*
X105782708Y-82003314D01*
X105782708Y-82003314D02*
X105630327Y-81927123D01*
X105630327Y-81927123D02*
X105325565Y-81927123D01*
X105325565Y-81927123D02*
X105173184Y-82003314D01*
X104182708Y-82993790D02*
X104335089Y-82917600D01*
X104335089Y-82917600D02*
X104411279Y-82841409D01*
X104411279Y-82841409D02*
X104487470Y-82689028D01*
X104487470Y-82689028D02*
X104487470Y-82231885D01*
X104487470Y-82231885D02*
X104411279Y-82079504D01*
X104411279Y-82079504D02*
X104335089Y-82003314D01*
X104335089Y-82003314D02*
X104182708Y-81927123D01*
X104182708Y-81927123D02*
X103954136Y-81927123D01*
X103954136Y-81927123D02*
X103801755Y-82003314D01*
X103801755Y-82003314D02*
X103725565Y-82079504D01*
X103725565Y-82079504D02*
X103649374Y-82231885D01*
X103649374Y-82231885D02*
X103649374Y-82689028D01*
X103649374Y-82689028D02*
X103725565Y-82841409D01*
X103725565Y-82841409D02*
X103801755Y-82917600D01*
X103801755Y-82917600D02*
X103954136Y-82993790D01*
X103954136Y-82993790D02*
X104182708Y-82993790D01*
X102963660Y-82993790D02*
X102963660Y-81393790D01*
X102963660Y-81393790D02*
X102430327Y-82536647D01*
X102430327Y-82536647D02*
X101896993Y-81393790D01*
X101896993Y-81393790D02*
X101896993Y-82993790D01*
X100220803Y-82841409D02*
X100296994Y-82917600D01*
X100296994Y-82917600D02*
X100525565Y-82993790D01*
X100525565Y-82993790D02*
X100677946Y-82993790D01*
X100677946Y-82993790D02*
X100906518Y-82917600D01*
X100906518Y-82917600D02*
X101058899Y-82765219D01*
X101058899Y-82765219D02*
X101135089Y-82612838D01*
X101135089Y-82612838D02*
X101211280Y-82308076D01*
X101211280Y-82308076D02*
X101211280Y-82079504D01*
X101211280Y-82079504D02*
X101135089Y-81774742D01*
X101135089Y-81774742D02*
X101058899Y-81622361D01*
X101058899Y-81622361D02*
X100906518Y-81469980D01*
X100906518Y-81469980D02*
X100677946Y-81393790D01*
X100677946Y-81393790D02*
X100525565Y-81393790D01*
X100525565Y-81393790D02*
X100296994Y-81469980D01*
X100296994Y-81469980D02*
X100220803Y-81546171D01*
X98620803Y-82841409D02*
X98696994Y-82917600D01*
X98696994Y-82917600D02*
X98925565Y-82993790D01*
X98925565Y-82993790D02*
X99077946Y-82993790D01*
X99077946Y-82993790D02*
X99306518Y-82917600D01*
X99306518Y-82917600D02*
X99458899Y-82765219D01*
X99458899Y-82765219D02*
X99535089Y-82612838D01*
X99535089Y-82612838D02*
X99611280Y-82308076D01*
X99611280Y-82308076D02*
X99611280Y-82079504D01*
X99611280Y-82079504D02*
X99535089Y-81774742D01*
X99535089Y-81774742D02*
X99458899Y-81622361D01*
X99458899Y-81622361D02*
X99306518Y-81469980D01*
X99306518Y-81469980D02*
X99077946Y-81393790D01*
X99077946Y-81393790D02*
X98925565Y-81393790D01*
X98925565Y-81393790D02*
X98696994Y-81469980D01*
X98696994Y-81469980D02*
X98620803Y-81546171D01*
%TO.C,G\u002A\u002A\u002A*%
G36*
X117587521Y-81344105D02*
G01*
X117731011Y-81376051D01*
X117870631Y-81425848D01*
X118004678Y-81493495D01*
X118131448Y-81578992D01*
X118249238Y-81682340D01*
X118312144Y-81750056D01*
X118403390Y-81871307D01*
X118477091Y-82000971D01*
X118533250Y-82137274D01*
X118571864Y-82278445D01*
X118592936Y-82422712D01*
X118596464Y-82568303D01*
X118582448Y-82713447D01*
X118550889Y-82856372D01*
X118501786Y-82995305D01*
X118435141Y-83128475D01*
X118350951Y-83254110D01*
X118249219Y-83370438D01*
X118231814Y-83387575D01*
X118115065Y-83486305D01*
X117984023Y-83570868D01*
X117837572Y-83641999D01*
X117800095Y-83656172D01*
X117758566Y-83665494D01*
X117728399Y-83661448D01*
X117708386Y-83642676D01*
X117697320Y-83607826D01*
X117693992Y-83555540D01*
X117697196Y-83484465D01*
X117704548Y-83386400D01*
X117784083Y-83392502D01*
X117822724Y-83394538D01*
X117902921Y-83390639D01*
X117969031Y-83373555D01*
X118023338Y-83342143D01*
X118068125Y-83295263D01*
X118105676Y-83231773D01*
X118117258Y-83208852D01*
X118157540Y-83145699D01*
X118209788Y-83087689D01*
X118222247Y-83075385D01*
X118249313Y-83047006D01*
X118268106Y-83024879D01*
X118275144Y-83012984D01*
X118267198Y-83002629D01*
X118244944Y-82995734D01*
X118214997Y-82994256D01*
X118184025Y-82999203D01*
X118158984Y-83008329D01*
X118118492Y-83032768D01*
X118078162Y-83070856D01*
X118034445Y-83125592D01*
X118003097Y-83165332D01*
X117969150Y-83198184D01*
X117933695Y-83220381D01*
X117920971Y-83225993D01*
X117860079Y-83241409D01*
X117794061Y-83243208D01*
X117731911Y-83230919D01*
X117707891Y-83220238D01*
X117692851Y-83203389D01*
X117682767Y-83173509D01*
X117681071Y-83167325D01*
X117665730Y-83127447D01*
X117646070Y-83091453D01*
X117620574Y-83053883D01*
X117674377Y-83046667D01*
X117703231Y-83042214D01*
X117807494Y-83015501D01*
X117900781Y-82974330D01*
X117981218Y-82919903D01*
X118046934Y-82853421D01*
X118096055Y-82776087D01*
X118105436Y-82756165D01*
X118128938Y-82695554D01*
X118144227Y-82633352D01*
X118152547Y-82563306D01*
X118155143Y-82479163D01*
X118153495Y-82410145D01*
X118146606Y-82348075D01*
X118132898Y-82295562D01*
X118110822Y-82246869D01*
X118078832Y-82196259D01*
X118074838Y-82190506D01*
X118054444Y-82157656D01*
X118045861Y-82134078D01*
X118047040Y-82114505D01*
X118051010Y-82091630D01*
X118053832Y-82049270D01*
X118054230Y-81998827D01*
X118052343Y-81947370D01*
X118048307Y-81901967D01*
X118042261Y-81869688D01*
X118032055Y-81842706D01*
X118018647Y-81829619D01*
X117995744Y-81824717D01*
X117966301Y-81825437D01*
X117911924Y-81838010D01*
X117847044Y-81863494D01*
X117774346Y-81900963D01*
X117695492Y-81945909D01*
X117628489Y-81929242D01*
X117620214Y-81927346D01*
X117569089Y-81919726D01*
X117504047Y-81914760D01*
X117430687Y-81912444D01*
X117354608Y-81912773D01*
X117281408Y-81915744D01*
X117216686Y-81921351D01*
X117166042Y-81929592D01*
X117148827Y-81933488D01*
X117116819Y-81939776D01*
X117096371Y-81940778D01*
X117081266Y-81936274D01*
X117065288Y-81926046D01*
X117026346Y-81901952D01*
X116973950Y-81875702D01*
X116918093Y-81852379D01*
X116865709Y-81834856D01*
X116823735Y-81826006D01*
X116766214Y-81820069D01*
X116754091Y-81860506D01*
X116748915Y-81880793D01*
X116740427Y-81934276D01*
X116736188Y-81993274D01*
X116736631Y-82049252D01*
X116742193Y-82093680D01*
X116747384Y-82120773D01*
X116746328Y-82141197D01*
X116736927Y-82162510D01*
X116717173Y-82192654D01*
X116705613Y-82210029D01*
X116672846Y-82269912D01*
X116651685Y-82331620D01*
X116640503Y-82401118D01*
X116637677Y-82484372D01*
X116640049Y-82545317D01*
X116655917Y-82656776D01*
X116686843Y-82753932D01*
X116733102Y-82837134D01*
X116794974Y-82906732D01*
X116872734Y-82963075D01*
X116966660Y-83006512D01*
X117077031Y-83037392D01*
X117094181Y-83040992D01*
X117131338Y-83049012D01*
X117157799Y-83055043D01*
X117168706Y-83057992D01*
X117168525Y-83060182D01*
X117160947Y-83074809D01*
X117146071Y-83098100D01*
X117136875Y-83112837D01*
X117123188Y-83142108D01*
X117112941Y-83177280D01*
X117105710Y-83221332D01*
X117101070Y-83277241D01*
X117098597Y-83347988D01*
X117097868Y-83436551D01*
X117097867Y-83437985D01*
X117097733Y-83506384D01*
X117097134Y-83557061D01*
X117095767Y-83593074D01*
X117093330Y-83617481D01*
X117089519Y-83633341D01*
X117084031Y-83643712D01*
X117076565Y-83651652D01*
X117072260Y-83655416D01*
X117057067Y-83664448D01*
X117038280Y-83665135D01*
X117007850Y-83658249D01*
X116953835Y-83640192D01*
X116874244Y-83603778D01*
X116789717Y-83555736D01*
X116704679Y-83498855D01*
X116623553Y-83435930D01*
X116550763Y-83369751D01*
X116486562Y-83300508D01*
X116395658Y-83179216D01*
X116322262Y-83049505D01*
X116266372Y-82913159D01*
X116227988Y-82771967D01*
X116207110Y-82627713D01*
X116203737Y-82482186D01*
X116217870Y-82337170D01*
X116249507Y-82194454D01*
X116298648Y-82055822D01*
X116365293Y-81923061D01*
X116449443Y-81797959D01*
X116551095Y-81682301D01*
X116617878Y-81620293D01*
X116740744Y-81527286D01*
X116871669Y-81452130D01*
X117008947Y-81394824D01*
X117150875Y-81355368D01*
X117295749Y-81333763D01*
X117441866Y-81330009D01*
X117587521Y-81344105D01*
G37*
G36*
X115489391Y-81434983D02*
G01*
X115475870Y-81454660D01*
X115461720Y-81475251D01*
X115446975Y-81496709D01*
X115431666Y-81518988D01*
X115415827Y-81542039D01*
X115399489Y-81565816D01*
X115382685Y-81590271D01*
X115365448Y-81615357D01*
X115347810Y-81641026D01*
X115329804Y-81667231D01*
X115311463Y-81693925D01*
X115292818Y-81721061D01*
X115273903Y-81748590D01*
X115254749Y-81776466D01*
X115235390Y-81804642D01*
X115215858Y-81833069D01*
X115196185Y-81861701D01*
X115176405Y-81890490D01*
X115156549Y-81919390D01*
X115136650Y-81948352D01*
X115116740Y-81977329D01*
X115096853Y-82006274D01*
X115077021Y-82035140D01*
X115057275Y-82063879D01*
X115037650Y-82092443D01*
X115018176Y-82120787D01*
X114998888Y-82148861D01*
X114979817Y-82176620D01*
X114960995Y-82204014D01*
X114942457Y-82230998D01*
X114924233Y-82257524D01*
X114906356Y-82283544D01*
X114888859Y-82309012D01*
X114871775Y-82333879D01*
X114855136Y-82358098D01*
X114838975Y-82381623D01*
X114823324Y-82404405D01*
X114808215Y-82426398D01*
X114793681Y-82447554D01*
X114779755Y-82467825D01*
X114766470Y-82487165D01*
X114753857Y-82505525D01*
X114741949Y-82522860D01*
X114730779Y-82539120D01*
X114720380Y-82554260D01*
X114710783Y-82568231D01*
X114702022Y-82580987D01*
X114694129Y-82592479D01*
X114687136Y-82602661D01*
X114681077Y-82611485D01*
X114675982Y-82618904D01*
X114671886Y-82624871D01*
X114668820Y-82629337D01*
X114666818Y-82632257D01*
X114665911Y-82633582D01*
X114663135Y-82637664D01*
X115130652Y-83181082D01*
X115133151Y-83183987D01*
X115157774Y-83212608D01*
X115182075Y-83240854D01*
X115206019Y-83268686D01*
X115229575Y-83296067D01*
X115252710Y-83322958D01*
X115275391Y-83349322D01*
X115297585Y-83375120D01*
X115319260Y-83400314D01*
X115340383Y-83424867D01*
X115360921Y-83448741D01*
X115380841Y-83471896D01*
X115400112Y-83494296D01*
X115418699Y-83515903D01*
X115436571Y-83536677D01*
X115453694Y-83556582D01*
X115470037Y-83575579D01*
X115485565Y-83593631D01*
X115500248Y-83610698D01*
X115514051Y-83626744D01*
X115526942Y-83641730D01*
X115538889Y-83655618D01*
X115549858Y-83668370D01*
X115559817Y-83679948D01*
X115568734Y-83690314D01*
X115576575Y-83699430D01*
X115583308Y-83707259D01*
X115588900Y-83713761D01*
X115593319Y-83718899D01*
X115596532Y-83722635D01*
X115598505Y-83724931D01*
X115599207Y-83725750D01*
X115599120Y-83725917D01*
X115598313Y-83726104D01*
X115596646Y-83726270D01*
X115594022Y-83726416D01*
X115590347Y-83726542D01*
X115585526Y-83726650D01*
X115579464Y-83726741D01*
X115572066Y-83726816D01*
X115563238Y-83726877D01*
X115552884Y-83726924D01*
X115540910Y-83726959D01*
X115527220Y-83726982D01*
X115511720Y-83726995D01*
X115494315Y-83727000D01*
X115388385Y-83727000D01*
X114978943Y-83251015D01*
X114976345Y-83247995D01*
X114953323Y-83221233D01*
X114930628Y-83194853D01*
X114908295Y-83168896D01*
X114886360Y-83143401D01*
X114864855Y-83118410D01*
X114843818Y-83093964D01*
X114823282Y-83070102D01*
X114803282Y-83046865D01*
X114783854Y-83024293D01*
X114765032Y-83002428D01*
X114746851Y-82981310D01*
X114729346Y-82960978D01*
X114712552Y-82941475D01*
X114696504Y-82922839D01*
X114681237Y-82905113D01*
X114666785Y-82888335D01*
X114653183Y-82872547D01*
X114640467Y-82857790D01*
X114628671Y-82844103D01*
X114617830Y-82831528D01*
X114607979Y-82820104D01*
X114599153Y-82809873D01*
X114591387Y-82800874D01*
X114584716Y-82793149D01*
X114579174Y-82786737D01*
X114574797Y-82781680D01*
X114571619Y-82778018D01*
X114569675Y-82775791D01*
X114569000Y-82775040D01*
X114568499Y-82775732D01*
X114566895Y-82778025D01*
X114564219Y-82781878D01*
X114560504Y-82787246D01*
X114555780Y-82794083D01*
X114550080Y-82802342D01*
X114543434Y-82811978D01*
X114535874Y-82822944D01*
X114527433Y-82835196D01*
X114518141Y-82848687D01*
X114508031Y-82863370D01*
X114497133Y-82879201D01*
X114485480Y-82896133D01*
X114473103Y-82914120D01*
X114460033Y-82933117D01*
X114446303Y-82953077D01*
X114431943Y-82973954D01*
X114416986Y-82995703D01*
X114401463Y-83018278D01*
X114385406Y-83041632D01*
X114368845Y-83065720D01*
X114351814Y-83090496D01*
X114334343Y-83115914D01*
X114316464Y-83141928D01*
X114298209Y-83168492D01*
X114279609Y-83195559D01*
X114260695Y-83223086D01*
X114241500Y-83251024D01*
X113914500Y-83726999D01*
X113557202Y-83726999D01*
X113199904Y-83727000D01*
X113202804Y-83722750D01*
X113203371Y-83721923D01*
X113205057Y-83719468D01*
X113207826Y-83715437D01*
X113211651Y-83709868D01*
X113216508Y-83702798D01*
X113222369Y-83694267D01*
X113229209Y-83684311D01*
X113237001Y-83672969D01*
X113245719Y-83660280D01*
X113255336Y-83646281D01*
X113265828Y-83631010D01*
X113277167Y-83614506D01*
X113289328Y-83596807D01*
X113302283Y-83577950D01*
X113305161Y-83573761D01*
X113490624Y-83573761D01*
X113490922Y-83573928D01*
X113491986Y-83574080D01*
X113493893Y-83574218D01*
X113496721Y-83574342D01*
X113500546Y-83574454D01*
X113505446Y-83574553D01*
X113511498Y-83574641D01*
X113518779Y-83574717D01*
X113527365Y-83574782D01*
X113537335Y-83574838D01*
X113548765Y-83574885D01*
X113561732Y-83574922D01*
X113576314Y-83574952D01*
X113592587Y-83574973D01*
X113610629Y-83574988D01*
X113630517Y-83574997D01*
X113652327Y-83575000D01*
X113814772Y-83575000D01*
X114155759Y-83087250D01*
X114175213Y-83059423D01*
X114196923Y-83028369D01*
X114219639Y-82995876D01*
X114243289Y-82962046D01*
X114267801Y-82926984D01*
X114293103Y-82890791D01*
X114319124Y-82853571D01*
X114345790Y-82815428D01*
X114373030Y-82776463D01*
X114400773Y-82736780D01*
X114428945Y-82696482D01*
X114457475Y-82655672D01*
X114486291Y-82614453D01*
X114515322Y-82572928D01*
X114544494Y-82531200D01*
X114573735Y-82489372D01*
X114602975Y-82447547D01*
X114632141Y-82405828D01*
X114661160Y-82364318D01*
X114689961Y-82323121D01*
X114718472Y-82282338D01*
X114746621Y-82242074D01*
X114774335Y-82202431D01*
X114801544Y-82163512D01*
X114828174Y-82125420D01*
X114854153Y-82088258D01*
X114879410Y-82052130D01*
X114903873Y-82017138D01*
X114924755Y-81987267D01*
X114946041Y-81956816D01*
X114967015Y-81926808D01*
X114987649Y-81897284D01*
X115007914Y-81868286D01*
X115027781Y-81839855D01*
X115047222Y-81812032D01*
X115066208Y-81784857D01*
X115084709Y-81758374D01*
X115102698Y-81732622D01*
X115120145Y-81707643D01*
X115137021Y-81683478D01*
X115153298Y-81660168D01*
X115168947Y-81637755D01*
X115183940Y-81616281D01*
X115198247Y-81595785D01*
X115211839Y-81576309D01*
X115224688Y-81557896D01*
X115236765Y-81540585D01*
X115248042Y-81524418D01*
X115258489Y-81509436D01*
X115268077Y-81495681D01*
X115276779Y-81483194D01*
X115284564Y-81472016D01*
X115291405Y-81462188D01*
X115297273Y-81453752D01*
X115302138Y-81446749D01*
X115305972Y-81441219D01*
X115308746Y-81437205D01*
X115310432Y-81434748D01*
X115311000Y-81433888D01*
X115310905Y-81433854D01*
X115309317Y-81433750D01*
X115305845Y-81433651D01*
X115300574Y-81433556D01*
X115293594Y-81433468D01*
X115284992Y-81433385D01*
X115274855Y-81433309D01*
X115263271Y-81433241D01*
X115250329Y-81433180D01*
X115236114Y-81433127D01*
X115220716Y-81433082D01*
X115204222Y-81433047D01*
X115186718Y-81433021D01*
X115168295Y-81433005D01*
X115149037Y-81432999D01*
X114987074Y-81432999D01*
X114925714Y-81520749D01*
X114918956Y-81530415D01*
X114907050Y-81547442D01*
X114894321Y-81565645D01*
X114880797Y-81584988D01*
X114866502Y-81605434D01*
X114851462Y-81626944D01*
X114835704Y-81649483D01*
X114819252Y-81673013D01*
X114802134Y-81697498D01*
X114784375Y-81722899D01*
X114766001Y-81749181D01*
X114747038Y-81776305D01*
X114727512Y-81804235D01*
X114707448Y-81832935D01*
X114686872Y-81862366D01*
X114665811Y-81892492D01*
X114644291Y-81923276D01*
X114622336Y-81954681D01*
X114599974Y-81986669D01*
X114577229Y-82019204D01*
X114554129Y-82052248D01*
X114530698Y-82085765D01*
X114506963Y-82119718D01*
X114482949Y-82154069D01*
X114458683Y-82188781D01*
X114434191Y-82223818D01*
X114409497Y-82259142D01*
X114384629Y-82294716D01*
X114359612Y-82330503D01*
X114334472Y-82366467D01*
X114309235Y-82402570D01*
X114283926Y-82438774D01*
X114258572Y-82475044D01*
X114233199Y-82511342D01*
X114207832Y-82547631D01*
X114182497Y-82583873D01*
X114157221Y-82620033D01*
X114132029Y-82656072D01*
X114106947Y-82691954D01*
X114082000Y-82727641D01*
X114057216Y-82763097D01*
X114032619Y-82798285D01*
X114008236Y-82833167D01*
X113984093Y-82867707D01*
X113960215Y-82901868D01*
X113936628Y-82935611D01*
X113913358Y-82968901D01*
X113890432Y-83001701D01*
X113867874Y-83033972D01*
X113845712Y-83065679D01*
X113823970Y-83096784D01*
X113802675Y-83127250D01*
X113781852Y-83157040D01*
X113761528Y-83186117D01*
X113741728Y-83214444D01*
X113722479Y-83241984D01*
X113703806Y-83268700D01*
X113685735Y-83294555D01*
X113668292Y-83319511D01*
X113651502Y-83343533D01*
X113635393Y-83366582D01*
X113619989Y-83388621D01*
X113605317Y-83409614D01*
X113591402Y-83429524D01*
X113578270Y-83448313D01*
X113565948Y-83465945D01*
X113554461Y-83482382D01*
X113543835Y-83497587D01*
X113534096Y-83511524D01*
X113525270Y-83524155D01*
X113517382Y-83535443D01*
X113510459Y-83545351D01*
X113504527Y-83553842D01*
X113499611Y-83560880D01*
X113495737Y-83566426D01*
X113492932Y-83570445D01*
X113491221Y-83572898D01*
X113490630Y-83573750D01*
X113490624Y-83573761D01*
X113305161Y-83573761D01*
X113316008Y-83557975D01*
X113330475Y-83536918D01*
X113345659Y-83514818D01*
X113361533Y-83491714D01*
X113378072Y-83467643D01*
X113395249Y-83442644D01*
X113413037Y-83416754D01*
X113431411Y-83390012D01*
X113450345Y-83362455D01*
X113469811Y-83334123D01*
X113489785Y-83305052D01*
X113510240Y-83275282D01*
X113531150Y-83244850D01*
X113552488Y-83213794D01*
X113574228Y-83182153D01*
X113596344Y-83149965D01*
X113618811Y-83117267D01*
X113641601Y-83084098D01*
X113664689Y-83050496D01*
X113688048Y-83016500D01*
X113709154Y-82985782D01*
X113732248Y-82952165D01*
X113755042Y-82918984D01*
X113777508Y-82886275D01*
X113799621Y-82854077D01*
X113821355Y-82822428D01*
X113842684Y-82791365D01*
X113863582Y-82760927D01*
X113884023Y-82731152D01*
X113903980Y-82702076D01*
X113923429Y-82673739D01*
X113942342Y-82646178D01*
X113960694Y-82619431D01*
X113978460Y-82593536D01*
X113995612Y-82568531D01*
X114012125Y-82544454D01*
X114027973Y-82521343D01*
X114043130Y-82499235D01*
X114057570Y-82478168D01*
X114071267Y-82458181D01*
X114084195Y-82439312D01*
X114096328Y-82421598D01*
X114107640Y-82405077D01*
X114118104Y-82389787D01*
X114127696Y-82375766D01*
X114136389Y-82363052D01*
X114144157Y-82351682D01*
X114150973Y-82341696D01*
X114156813Y-82333130D01*
X114161650Y-82326023D01*
X114165457Y-82320412D01*
X114168210Y-82316336D01*
X114169882Y-82313832D01*
X114170447Y-82312939D01*
X114170362Y-82312809D01*
X114169254Y-82311434D01*
X114166887Y-82308596D01*
X114163294Y-82304334D01*
X114158508Y-82298688D01*
X114152563Y-82291696D01*
X114145493Y-82283398D01*
X114137330Y-82273831D01*
X114128108Y-82263036D01*
X114117861Y-82251051D01*
X114106623Y-82237915D01*
X114094425Y-82223667D01*
X114081303Y-82208347D01*
X114067288Y-82191992D01*
X114052416Y-82174642D01*
X114036718Y-82156337D01*
X114020230Y-82137114D01*
X114002983Y-82117013D01*
X113985011Y-82096073D01*
X113966349Y-82074333D01*
X113947028Y-82051832D01*
X113927083Y-82028609D01*
X113906548Y-82004703D01*
X113885455Y-81980152D01*
X113863837Y-81954996D01*
X113841730Y-81929274D01*
X113819165Y-81903024D01*
X113796176Y-81876286D01*
X113772796Y-81849099D01*
X113749060Y-81821501D01*
X113725000Y-81793532D01*
X113716222Y-81783328D01*
X113692276Y-81755492D01*
X113668665Y-81728044D01*
X113645422Y-81701022D01*
X113622580Y-81674466D01*
X113600173Y-81648414D01*
X113578234Y-81622906D01*
X113556797Y-81597979D01*
X113535895Y-81573674D01*
X113515562Y-81550028D01*
X113495832Y-81527081D01*
X113476736Y-81504873D01*
X113458310Y-81483441D01*
X113440586Y-81462824D01*
X113423598Y-81443062D01*
X113407380Y-81424194D01*
X113391964Y-81406257D01*
X113377384Y-81389292D01*
X113363674Y-81373338D01*
X113350868Y-81358432D01*
X113338997Y-81344614D01*
X113328097Y-81331924D01*
X113318201Y-81320399D01*
X113309341Y-81310078D01*
X113301551Y-81301002D01*
X113294866Y-81293208D01*
X113289318Y-81286735D01*
X113284940Y-81281623D01*
X113281766Y-81277910D01*
X113279831Y-81275635D01*
X113279166Y-81274838D01*
X113280017Y-81274730D01*
X113282741Y-81274626D01*
X113287212Y-81274532D01*
X113293299Y-81274448D01*
X113300873Y-81274376D01*
X113309805Y-81274315D01*
X113319966Y-81274268D01*
X113331224Y-81274233D01*
X113343451Y-81274213D01*
X113356518Y-81274208D01*
X113370294Y-81274218D01*
X113384651Y-81274245D01*
X113490471Y-81274500D01*
X113877549Y-81724437D01*
X113884356Y-81732350D01*
X113906679Y-81758296D01*
X113928669Y-81783852D01*
X113950289Y-81808975D01*
X113971503Y-81833625D01*
X113992277Y-81857759D01*
X114012573Y-81881336D01*
X114032355Y-81904314D01*
X114051588Y-81926652D01*
X114070237Y-81948307D01*
X114088264Y-81969238D01*
X114105634Y-81989403D01*
X114122311Y-82008761D01*
X114138259Y-82027269D01*
X114153442Y-82044887D01*
X114167824Y-82061572D01*
X114181369Y-82077283D01*
X114194042Y-82091978D01*
X114205806Y-82105615D01*
X114216626Y-82118153D01*
X114226465Y-82129549D01*
X114235287Y-82139763D01*
X114243057Y-82148753D01*
X114249739Y-82156476D01*
X114255296Y-82162891D01*
X114259693Y-82167957D01*
X114262894Y-82171631D01*
X114264863Y-82173873D01*
X114265564Y-82174639D01*
X114265587Y-82174621D01*
X114266382Y-82173561D01*
X114268272Y-82170907D01*
X114271223Y-82166706D01*
X114275202Y-82161005D01*
X114280179Y-82153851D01*
X114286119Y-82145292D01*
X114292991Y-82135375D01*
X114300761Y-82124146D01*
X114309398Y-82111654D01*
X114318868Y-82097944D01*
X114329140Y-82083066D01*
X114340181Y-82067064D01*
X114351957Y-82049988D01*
X114364438Y-82031884D01*
X114377589Y-82012799D01*
X114391380Y-81992780D01*
X114405776Y-81971875D01*
X114420746Y-81950131D01*
X114436256Y-81927594D01*
X114452276Y-81904313D01*
X114468771Y-81880334D01*
X114485710Y-81855705D01*
X114503059Y-81830472D01*
X114520787Y-81804683D01*
X114538861Y-81778385D01*
X114557248Y-81751626D01*
X114575916Y-81724452D01*
X114885331Y-81274000D01*
X115242735Y-81274000D01*
X115600137Y-81274000D01*
X115594715Y-81281750D01*
X115594479Y-81282090D01*
X115593172Y-81283987D01*
X115590781Y-81287462D01*
X115587339Y-81292467D01*
X115582878Y-81298955D01*
X115577431Y-81306878D01*
X115571030Y-81316190D01*
X115563708Y-81326843D01*
X115555497Y-81338790D01*
X115546430Y-81351983D01*
X115536539Y-81366374D01*
X115525857Y-81381918D01*
X115514417Y-81398565D01*
X115502251Y-81416270D01*
X115490144Y-81433888D01*
X115489391Y-81434983D01*
G37*
G36*
X82245487Y-77872465D02*
G01*
X82258830Y-77898781D01*
X82260339Y-77932322D01*
X82247710Y-77962332D01*
X82233498Y-77974661D01*
X82212087Y-77975098D01*
X82197486Y-77953805D01*
X82194209Y-77914793D01*
X82196797Y-77893746D01*
X82206657Y-77870124D01*
X82226614Y-77863814D01*
X82245487Y-77872465D01*
G37*
G36*
X82658214Y-78173200D02*
G01*
X82669231Y-78201019D01*
X82668315Y-78233627D01*
X82652821Y-78262228D01*
X82651405Y-78263612D01*
X82627938Y-78275235D01*
X82611168Y-78260306D01*
X82602298Y-78219835D01*
X82601626Y-78209783D01*
X82605376Y-78176404D01*
X82622281Y-78160640D01*
X82637908Y-78158967D01*
X82658214Y-78173200D01*
G37*
G36*
X82552015Y-77342929D02*
G01*
X82557307Y-77367969D01*
X82555249Y-77391097D01*
X82547925Y-77411163D01*
X82538944Y-77416106D01*
X82511811Y-77420545D01*
X82500747Y-77418298D01*
X82487752Y-77401292D01*
X82488681Y-77375770D01*
X82501868Y-77351601D01*
X82525645Y-77338652D01*
X82531211Y-77337991D01*
X82552015Y-77342929D01*
G37*
G36*
X70364082Y-80249173D02*
G01*
X70380425Y-80274469D01*
X70383364Y-80312358D01*
X70368121Y-80344711D01*
X70365790Y-80346890D01*
X70333642Y-80360482D01*
X70298477Y-80356338D01*
X70273649Y-80335728D01*
X70265491Y-80301983D01*
X70275584Y-80268355D01*
X70299583Y-80244322D01*
X70331183Y-80235917D01*
X70364082Y-80249173D01*
G37*
G36*
X70349046Y-80541955D02*
G01*
X70386277Y-80555741D01*
X70399113Y-80577705D01*
X70385986Y-80606678D01*
X70385586Y-80607153D01*
X70354402Y-80624740D01*
X70310333Y-80629073D01*
X70264829Y-80620643D01*
X70229336Y-80599942D01*
X70228709Y-80599313D01*
X70207257Y-80570786D01*
X70210177Y-80551633D01*
X70238481Y-80540867D01*
X70293178Y-80537498D01*
X70349046Y-80541955D01*
G37*
G36*
X65498885Y-80256855D02*
G01*
X65518836Y-80282784D01*
X65530928Y-80328057D01*
X65531767Y-80380810D01*
X65521322Y-80431291D01*
X65499563Y-80469749D01*
X65470914Y-80492629D01*
X65444296Y-80502318D01*
X65413806Y-80492560D01*
X65386592Y-80461917D01*
X65368971Y-80417363D01*
X65362624Y-80366076D01*
X65369228Y-80315238D01*
X65390461Y-80272027D01*
X65420284Y-80244029D01*
X65456506Y-80237101D01*
X65498885Y-80256855D01*
G37*
G36*
X64234766Y-80236734D02*
G01*
X64263058Y-80251668D01*
X64290821Y-80275516D01*
X64310080Y-80300664D01*
X64312857Y-80319499D01*
X64303291Y-80324977D01*
X64271721Y-80331080D01*
X64227667Y-80333453D01*
X64216671Y-80333400D01*
X64176163Y-80331053D01*
X64156347Y-80323858D01*
X64151102Y-80309935D01*
X64151121Y-80308705D01*
X64163532Y-80275125D01*
X64191527Y-80246842D01*
X64224282Y-80234949D01*
X64234766Y-80236734D01*
G37*
G36*
X71183408Y-80266611D02*
G01*
X71203328Y-80295926D01*
X71218228Y-80352221D01*
X71212527Y-80411929D01*
X71186091Y-80465240D01*
X71170593Y-80481431D01*
X71133414Y-80498938D01*
X71096272Y-80493444D01*
X71063893Y-80467917D01*
X71041001Y-80425324D01*
X71032321Y-80368633D01*
X71033205Y-80343512D01*
X71042904Y-80302168D01*
X71066861Y-80269490D01*
X71067615Y-80268739D01*
X71108192Y-80240374D01*
X71146085Y-80239683D01*
X71183408Y-80266611D01*
G37*
G36*
X69973214Y-80266611D02*
G01*
X69993134Y-80295926D01*
X70008034Y-80352221D01*
X70002333Y-80411929D01*
X69975898Y-80465240D01*
X69960399Y-80481431D01*
X69923220Y-80498938D01*
X69886078Y-80493444D01*
X69853699Y-80467917D01*
X69830807Y-80425324D01*
X69822127Y-80368633D01*
X69823011Y-80343512D01*
X69832710Y-80302168D01*
X69856667Y-80269490D01*
X69857422Y-80268739D01*
X69897998Y-80240374D01*
X69935892Y-80239683D01*
X69973214Y-80266611D01*
G37*
G36*
X67538754Y-80266611D02*
G01*
X67558674Y-80295926D01*
X67573574Y-80352221D01*
X67567873Y-80411929D01*
X67541438Y-80465240D01*
X67525940Y-80481431D01*
X67488760Y-80498938D01*
X67451618Y-80493444D01*
X67419239Y-80467917D01*
X67396347Y-80425324D01*
X67387667Y-80368633D01*
X67388551Y-80343512D01*
X67398251Y-80302168D01*
X67422207Y-80269490D01*
X67422962Y-80268739D01*
X67463539Y-80240374D01*
X67501432Y-80239683D01*
X67538754Y-80266611D01*
G37*
G36*
X66314488Y-80266611D02*
G01*
X66334408Y-80295926D01*
X66349308Y-80352221D01*
X66343607Y-80411929D01*
X66317172Y-80465240D01*
X66301674Y-80481431D01*
X66264494Y-80498938D01*
X66227352Y-80493444D01*
X66194973Y-80467917D01*
X66172081Y-80425324D01*
X66163401Y-80368633D01*
X66164285Y-80343512D01*
X66173985Y-80302168D01*
X66197941Y-80269490D01*
X66198696Y-80268739D01*
X66239273Y-80240374D01*
X66277166Y-80239683D01*
X66314488Y-80266611D01*
G37*
G36*
X61840159Y-80256855D02*
G01*
X61860110Y-80282784D01*
X61872202Y-80328057D01*
X61873041Y-80380810D01*
X61862597Y-80431291D01*
X61840837Y-80469749D01*
X61837804Y-80472906D01*
X61800919Y-80498279D01*
X61766217Y-80495751D01*
X61731735Y-80465240D01*
X61726259Y-80457524D01*
X61707162Y-80409811D01*
X61701503Y-80354292D01*
X61709335Y-80301781D01*
X61730714Y-80263093D01*
X61755198Y-80244220D01*
X61795429Y-80236878D01*
X61840159Y-80256855D01*
G37*
G36*
X57372083Y-78364266D02*
G01*
X57431373Y-78399459D01*
X57477002Y-78454838D01*
X57482082Y-78464423D01*
X57504359Y-78535755D01*
X57505233Y-78610733D01*
X57486378Y-78682445D01*
X57449470Y-78743982D01*
X57396180Y-78788433D01*
X57333010Y-78810071D01*
X57262308Y-78810480D01*
X57194411Y-78790084D01*
X57136491Y-78751097D01*
X57095717Y-78695731D01*
X57079230Y-78643275D01*
X57073146Y-78573927D01*
X57080467Y-78505961D01*
X57100943Y-78451192D01*
X57118522Y-78426517D01*
X57172352Y-78380384D01*
X57236563Y-78354670D01*
X57305143Y-78349317D01*
X57372083Y-78364266D01*
G37*
G36*
X54529535Y-78364266D02*
G01*
X54588825Y-78399459D01*
X54634453Y-78454838D01*
X54639533Y-78464423D01*
X54661810Y-78535755D01*
X54662684Y-78610733D01*
X54643830Y-78682445D01*
X54606921Y-78743982D01*
X54553632Y-78788433D01*
X54490461Y-78810071D01*
X54419760Y-78810480D01*
X54351863Y-78790084D01*
X54293942Y-78751097D01*
X54253169Y-78695731D01*
X54236682Y-78643275D01*
X54230597Y-78573927D01*
X54237919Y-78505961D01*
X54258394Y-78451192D01*
X54275974Y-78426517D01*
X54329804Y-78380384D01*
X54394014Y-78354670D01*
X54462595Y-78349317D01*
X54529535Y-78364266D01*
G37*
G36*
X51672915Y-78364266D02*
G01*
X51732204Y-78399459D01*
X51777833Y-78454838D01*
X51782913Y-78464423D01*
X51805190Y-78535755D01*
X51806064Y-78610733D01*
X51787209Y-78682445D01*
X51750301Y-78743982D01*
X51697011Y-78788433D01*
X51633841Y-78810071D01*
X51563139Y-78810480D01*
X51495242Y-78790084D01*
X51437322Y-78751097D01*
X51396548Y-78695731D01*
X51380061Y-78643275D01*
X51373977Y-78573927D01*
X51381298Y-78505961D01*
X51401774Y-78451192D01*
X51419353Y-78426517D01*
X51473183Y-78380384D01*
X51537394Y-78354670D01*
X51605974Y-78349317D01*
X51672915Y-78364266D01*
G37*
G36*
X69990991Y-76829520D02*
G01*
X69990991Y-77336113D01*
X70574980Y-77336113D01*
X71158969Y-77336113D01*
X71158969Y-76829520D01*
X71158969Y-76322927D01*
X71320797Y-76322927D01*
X71482625Y-76322927D01*
X71482625Y-77547193D01*
X71482625Y-78771459D01*
X71320797Y-78771459D01*
X71158969Y-78771459D01*
X71158969Y-78201542D01*
X71158969Y-77631625D01*
X70574980Y-77631625D01*
X69990991Y-77631625D01*
X69990991Y-78201542D01*
X69990991Y-78771459D01*
X69822127Y-78771459D01*
X69653262Y-78771459D01*
X69653262Y-77547193D01*
X69653262Y-76322927D01*
X69822127Y-76322927D01*
X69990991Y-76322927D01*
X69990991Y-76829520D01*
G37*
G36*
X51122286Y-79742446D02*
G01*
X51521462Y-79742463D01*
X51646832Y-80259593D01*
X51649931Y-80272377D01*
X51678170Y-80388798D01*
X51704410Y-80496883D01*
X51727881Y-80593464D01*
X51747810Y-80675371D01*
X51763427Y-80739433D01*
X51773960Y-80782482D01*
X51778639Y-80801348D01*
X51779331Y-80805927D01*
X51776640Y-80812147D01*
X51766612Y-80816933D01*
X51746273Y-80820471D01*
X51712653Y-80822947D01*
X51662777Y-80824548D01*
X51593675Y-80825459D01*
X51502374Y-80825867D01*
X51385901Y-80825958D01*
X50986725Y-80825942D01*
X50863226Y-80315847D01*
X50861885Y-80310307D01*
X50833686Y-80193911D01*
X50807355Y-80085360D01*
X50783684Y-79987906D01*
X50763464Y-79904800D01*
X50747485Y-79839294D01*
X50736540Y-79794640D01*
X50731419Y-79774091D01*
X50723110Y-79742428D01*
X51122286Y-79742446D01*
G37*
G36*
X49954308Y-79742446D02*
G01*
X50353484Y-79742463D01*
X50478854Y-80259593D01*
X50481953Y-80272377D01*
X50510192Y-80388798D01*
X50536432Y-80496883D01*
X50559903Y-80593464D01*
X50579832Y-80675371D01*
X50595449Y-80739433D01*
X50605982Y-80782482D01*
X50610661Y-80801348D01*
X50611353Y-80805927D01*
X50608663Y-80812147D01*
X50598634Y-80816933D01*
X50578296Y-80820471D01*
X50544675Y-80822947D01*
X50494799Y-80824548D01*
X50425697Y-80825459D01*
X50334396Y-80825867D01*
X50217923Y-80825958D01*
X49818747Y-80825942D01*
X49695248Y-80315847D01*
X49693907Y-80310307D01*
X49665708Y-80193911D01*
X49639377Y-80085360D01*
X49615706Y-79987906D01*
X49595486Y-79904800D01*
X49579508Y-79839294D01*
X49568562Y-79794640D01*
X49563441Y-79774091D01*
X49555132Y-79742428D01*
X49954308Y-79742446D01*
G37*
G36*
X82050992Y-76902370D02*
G01*
X82062237Y-76916509D01*
X82064786Y-76950478D01*
X82064781Y-76951466D01*
X82056933Y-76997748D01*
X82038624Y-77038428D01*
X82030400Y-77052845D01*
X82015559Y-77096156D01*
X82005950Y-77148067D01*
X82002414Y-77199729D01*
X82005790Y-77242291D01*
X82016920Y-77266903D01*
X82026694Y-77277677D01*
X82036642Y-77303388D01*
X82036665Y-77304067D01*
X82049513Y-77322303D01*
X82078858Y-77338221D01*
X82094327Y-77345561D01*
X82118401Y-77374274D01*
X82119772Y-77411933D01*
X82097313Y-77451620D01*
X82095915Y-77453131D01*
X82066077Y-77471948D01*
X82039755Y-77467712D01*
X82024606Y-77441491D01*
X82013395Y-77411442D01*
X81992783Y-77376156D01*
X81992559Y-77375840D01*
X81973993Y-77343525D01*
X81966282Y-77318073D01*
X81962215Y-77302969D01*
X81943259Y-77278236D01*
X81934489Y-77268420D01*
X81927943Y-77250536D01*
X81925186Y-77220786D01*
X81925788Y-77173780D01*
X81929317Y-77104130D01*
X81933247Y-77044284D01*
X81938365Y-76993308D01*
X81945047Y-76960123D01*
X81954510Y-76939074D01*
X81967971Y-76924506D01*
X81994540Y-76908829D01*
X82031165Y-76899880D01*
X82050992Y-76902370D01*
G37*
G36*
X79971494Y-77482817D02*
G01*
X79980420Y-77503842D01*
X79982127Y-77545575D01*
X79982118Y-77549442D01*
X79979300Y-77592428D01*
X79968702Y-77618451D01*
X79946345Y-77637762D01*
X79939308Y-77642515D01*
X79923642Y-77656862D01*
X79915595Y-77676601D01*
X79913249Y-77709296D01*
X79914683Y-77762510D01*
X79914761Y-77764414D01*
X79917961Y-77817447D01*
X79923553Y-77849418D01*
X79933675Y-77867209D01*
X79950465Y-77877704D01*
X79971619Y-77893455D01*
X79982127Y-77929707D01*
X79990387Y-77962554D01*
X80020825Y-77986280D01*
X80033905Y-77994382D01*
X80058888Y-78027382D01*
X80065816Y-78067567D01*
X80051780Y-78103889D01*
X80045459Y-78110696D01*
X80016052Y-78124796D01*
X79989308Y-78113412D01*
X79971143Y-78078412D01*
X79955455Y-78043389D01*
X79927962Y-78028107D01*
X79903120Y-78015875D01*
X79888117Y-77981273D01*
X79876902Y-77952177D01*
X79846463Y-77926385D01*
X79824527Y-77915562D01*
X79811691Y-77902860D01*
X79810811Y-77886831D01*
X79809437Y-77848131D01*
X79807796Y-77792970D01*
X79806080Y-77727351D01*
X79806005Y-77724278D01*
X79804987Y-77645872D01*
X79807599Y-77590356D01*
X79815708Y-77552695D01*
X79831180Y-77527854D01*
X79855883Y-77510798D01*
X79891684Y-77496492D01*
X79909155Y-77490504D01*
X79949642Y-77479404D01*
X79971494Y-77482817D01*
G37*
G36*
X54440181Y-79795199D02*
G01*
X54440437Y-79796167D01*
X54449828Y-79832560D01*
X54464208Y-79889228D01*
X54482669Y-79962511D01*
X54504300Y-80048752D01*
X54528189Y-80144288D01*
X54553429Y-80245462D01*
X54579107Y-80348613D01*
X54604314Y-80450082D01*
X54628141Y-80546209D01*
X54649676Y-80633335D01*
X54668010Y-80707799D01*
X54682233Y-80765942D01*
X54691434Y-80804105D01*
X54694703Y-80818628D01*
X54694697Y-80818650D01*
X54680404Y-80819729D01*
X54639994Y-80820760D01*
X54575452Y-80821732D01*
X54488766Y-80822632D01*
X54381922Y-80823449D01*
X54256906Y-80824173D01*
X54115703Y-80824791D01*
X53960302Y-80825291D01*
X53792687Y-80825663D01*
X53614845Y-80825894D01*
X53428763Y-80825974D01*
X52162824Y-80825974D01*
X52148892Y-80773204D01*
X52148637Y-80772236D01*
X52139246Y-80735843D01*
X52124865Y-80679175D01*
X52106404Y-80605891D01*
X52084774Y-80519651D01*
X52060884Y-80424114D01*
X52035645Y-80322940D01*
X52009966Y-80219789D01*
X51984759Y-80118320D01*
X51960932Y-80022193D01*
X51939397Y-79935068D01*
X51921063Y-79860604D01*
X51906841Y-79802460D01*
X51897640Y-79764297D01*
X51894370Y-79749775D01*
X51894376Y-79749752D01*
X51908669Y-79748673D01*
X51949080Y-79747642D01*
X52013621Y-79746671D01*
X52100307Y-79745771D01*
X52207151Y-79744953D01*
X52332168Y-79744230D01*
X52473370Y-79743612D01*
X52628771Y-79743112D01*
X52796386Y-79742740D01*
X52974228Y-79742508D01*
X53160310Y-79742428D01*
X54426250Y-79742428D01*
X54440181Y-79795199D01*
G37*
G36*
X82402137Y-77255451D02*
G01*
X82412620Y-77282173D01*
X82419273Y-77335585D01*
X82421509Y-77358574D01*
X82432547Y-77412415D01*
X82449108Y-77445752D01*
X82456766Y-77455363D01*
X82472617Y-77500155D01*
X82463657Y-77548501D01*
X82430658Y-77594166D01*
X82417869Y-77606895D01*
X82392963Y-77642088D01*
X82393950Y-77668307D01*
X82420696Y-77686801D01*
X82441835Y-77699342D01*
X82473816Y-77731169D01*
X82501872Y-77771163D01*
X82520159Y-77810531D01*
X82522833Y-77840479D01*
X82512154Y-77862930D01*
X82487852Y-77886083D01*
X82461124Y-77893074D01*
X82439536Y-77882785D01*
X82430658Y-77854099D01*
X82427396Y-77838537D01*
X82413068Y-77832096D01*
X82405709Y-77840054D01*
X82396509Y-77873112D01*
X82391212Y-77927715D01*
X82387522Y-77971318D01*
X82380418Y-78012758D01*
X82371899Y-78035656D01*
X82345251Y-78052116D01*
X82316176Y-78048735D01*
X82297171Y-78026263D01*
X82295855Y-78020279D01*
X82296474Y-77985216D01*
X82305154Y-77942941D01*
X82305940Y-77940306D01*
X82314474Y-77902848D01*
X82310422Y-77876983D01*
X82291833Y-77848954D01*
X82267650Y-77806008D01*
X82265437Y-77761349D01*
X82289938Y-77723093D01*
X82308274Y-77700724D01*
X82318082Y-77673841D01*
X82311247Y-77652161D01*
X82289938Y-77624589D01*
X82271854Y-77600865D01*
X82261794Y-77567843D01*
X82257946Y-77546699D01*
X82240686Y-77519049D01*
X82227601Y-77500426D01*
X82220304Y-77467032D01*
X82224282Y-77434745D01*
X82239657Y-77415851D01*
X82248912Y-77413905D01*
X82273581Y-77426963D01*
X82294797Y-77467449D01*
X82301387Y-77481954D01*
X82315146Y-77491392D01*
X82328257Y-77476556D01*
X82339142Y-77439995D01*
X82346226Y-77384259D01*
X82352485Y-77321420D01*
X82361699Y-77279838D01*
X82375225Y-77258011D01*
X82394618Y-77251681D01*
X82402137Y-77255451D01*
G37*
G36*
X66355413Y-76984602D02*
G01*
X66443477Y-77002250D01*
X66552369Y-77040990D01*
X66649351Y-77099318D01*
X66742096Y-77181136D01*
X66838858Y-77279640D01*
X66838858Y-77190023D01*
X66839706Y-77147492D01*
X66842900Y-77094507D01*
X66847653Y-77056431D01*
X66856448Y-77012456D01*
X67004286Y-77012456D01*
X67152125Y-77012456D01*
X67143402Y-77065226D01*
X67142056Y-77083241D01*
X67140536Y-77128349D01*
X67139128Y-77196680D01*
X67137858Y-77285561D01*
X67136753Y-77392322D01*
X67135841Y-77514290D01*
X67135147Y-77648795D01*
X67134700Y-77793165D01*
X67134525Y-77944728D01*
X67134370Y-78771459D01*
X66966213Y-78771459D01*
X66798056Y-78771459D01*
X66793831Y-78176916D01*
X66789606Y-77582373D01*
X66749917Y-77507007D01*
X66715247Y-77450149D01*
X66642120Y-77366945D01*
X66555272Y-77304520D01*
X66458438Y-77265293D01*
X66355352Y-77251681D01*
X66325765Y-77252581D01*
X66225124Y-77271415D01*
X66139018Y-77314227D01*
X66068335Y-77380448D01*
X66013965Y-77469511D01*
X66013722Y-77470044D01*
X65998869Y-77508161D01*
X65986489Y-77553378D01*
X65976387Y-77608322D01*
X65968364Y-77675624D01*
X65962225Y-77757911D01*
X65957772Y-77857813D01*
X65954809Y-77977957D01*
X65953139Y-78120974D01*
X65952564Y-78289492D01*
X65952321Y-78771459D01*
X65790492Y-78771459D01*
X65628664Y-78771459D01*
X65628664Y-78186877D01*
X65628845Y-78044734D01*
X65629664Y-77903704D01*
X65631396Y-77785398D01*
X65634314Y-77686907D01*
X65638689Y-77605322D01*
X65644792Y-77537735D01*
X65652895Y-77481237D01*
X65663270Y-77432920D01*
X65676188Y-77389876D01*
X65691922Y-77349195D01*
X65710741Y-77307969D01*
X65728270Y-77275857D01*
X65780428Y-77203431D01*
X65845500Y-77133761D01*
X65915725Y-77074649D01*
X65983342Y-77033899D01*
X66086326Y-76997209D01*
X66218056Y-76977173D01*
X66355413Y-76984602D01*
G37*
G36*
X82759597Y-76834930D02*
G01*
X82768387Y-76854909D01*
X82771501Y-76871734D01*
X82789709Y-76900058D01*
X82804427Y-76914599D01*
X82834840Y-76960343D01*
X82858876Y-77016761D01*
X82874061Y-77075444D01*
X82877920Y-77127984D01*
X82867978Y-77165972D01*
X82860496Y-77187392D01*
X82869189Y-77212899D01*
X82896541Y-77223537D01*
X82913789Y-77228307D01*
X82922949Y-77247806D01*
X82910646Y-77273492D01*
X82907681Y-77282308D01*
X82903023Y-77315885D01*
X82898589Y-77369270D01*
X82894767Y-77437417D01*
X82891948Y-77515278D01*
X82889610Y-77591850D01*
X82886555Y-77658654D01*
X82882612Y-77705630D01*
X82877220Y-77737253D01*
X82869823Y-77757998D01*
X82859861Y-77772339D01*
X82853270Y-77780790D01*
X82838194Y-77819697D01*
X82832825Y-77879470D01*
X82832293Y-77900721D01*
X82827830Y-77940638D01*
X82815973Y-77966606D01*
X82793013Y-77988810D01*
X82765979Y-78019022D01*
X82754315Y-78053206D01*
X82749664Y-78078398D01*
X82731026Y-78112484D01*
X82713683Y-78127776D01*
X82684837Y-78137753D01*
X82663846Y-78125762D01*
X82661146Y-78100313D01*
X82673141Y-78065833D01*
X82694570Y-78034383D01*
X82719647Y-78017220D01*
X82734856Y-78012551D01*
X82745227Y-78000298D01*
X82736773Y-77974393D01*
X82728159Y-77937649D01*
X82737667Y-77893781D01*
X82738754Y-77890739D01*
X82749780Y-77854621D01*
X82754315Y-77829807D01*
X82754318Y-77829514D01*
X82762197Y-77805873D01*
X82780671Y-77774518D01*
X82789947Y-77758643D01*
X82808565Y-77706601D01*
X82822712Y-77638641D01*
X82832154Y-77560961D01*
X82836660Y-77479760D01*
X82835995Y-77401238D01*
X82829926Y-77331593D01*
X82818220Y-77277024D01*
X82800643Y-77243731D01*
X82800533Y-77243621D01*
X82788003Y-77223243D01*
X82783904Y-77191200D01*
X82787221Y-77139620D01*
X82790540Y-77089796D01*
X82786857Y-77058205D01*
X82775059Y-77040298D01*
X82764545Y-77027824D01*
X82754315Y-76996091D01*
X82754133Y-76992930D01*
X82743990Y-76962115D01*
X82723093Y-76926871D01*
X82712281Y-76911271D01*
X82700658Y-76883296D01*
X82707011Y-76860598D01*
X82715206Y-76849742D01*
X82738990Y-76833474D01*
X82759597Y-76834930D01*
G37*
G36*
X69248458Y-77906030D02*
G01*
X69239261Y-78066545D01*
X69212448Y-78208741D01*
X69166629Y-78335634D01*
X69100408Y-78451080D01*
X69012394Y-78558935D01*
X68954133Y-78614253D01*
X68845825Y-78692987D01*
X68727636Y-78753982D01*
X68607873Y-78792443D01*
X68502673Y-78808910D01*
X68353311Y-78811241D01*
X68207559Y-78790060D01*
X68068805Y-78746822D01*
X67940439Y-78682978D01*
X67825849Y-78599983D01*
X67728425Y-78499290D01*
X67651555Y-78382352D01*
X67644926Y-78369579D01*
X67594521Y-78256470D01*
X67561122Y-78143867D01*
X67542704Y-78022955D01*
X67537519Y-77891958D01*
X67876421Y-77891958D01*
X67884067Y-78010111D01*
X67911914Y-78143766D01*
X67958774Y-78263622D01*
X68023214Y-78366927D01*
X68103806Y-78450928D01*
X68199118Y-78512873D01*
X68275041Y-78541270D01*
X68369735Y-78555168D01*
X68474039Y-78551288D01*
X68567521Y-78525648D01*
X68652693Y-78476044D01*
X68734436Y-78400406D01*
X68764661Y-78365217D01*
X68829853Y-78266999D01*
X68874659Y-78158146D01*
X68900500Y-78034514D01*
X68908798Y-77891958D01*
X68908676Y-77875151D01*
X68895236Y-77722716D01*
X68859727Y-77586589D01*
X68802386Y-77467445D01*
X68723452Y-77365958D01*
X68688950Y-77333388D01*
X68602925Y-77275726D01*
X68505726Y-77242109D01*
X68393520Y-77230969D01*
X68391136Y-77230962D01*
X68329438Y-77232329D01*
X68282905Y-77238678D01*
X68239043Y-77252799D01*
X68185353Y-77277486D01*
X68113233Y-77321652D01*
X68030548Y-77400008D01*
X67964379Y-77498493D01*
X67915872Y-77614831D01*
X67886171Y-77746745D01*
X67876421Y-77891958D01*
X67537519Y-77891958D01*
X67537240Y-77884922D01*
X67537919Y-77832885D01*
X67544871Y-77720889D01*
X67560761Y-77623754D01*
X67587370Y-77532577D01*
X67626477Y-77438455D01*
X67674282Y-77349473D01*
X67761737Y-77233227D01*
X67868654Y-77137023D01*
X67995535Y-77060438D01*
X68142884Y-77003048D01*
X68150897Y-77000711D01*
X68241059Y-76983821D01*
X68346781Y-76977321D01*
X68458560Y-76980948D01*
X68566897Y-76994437D01*
X68662288Y-77017523D01*
X68772144Y-77061730D01*
X68900342Y-77139070D01*
X69011579Y-77237444D01*
X69104068Y-77354881D01*
X69176019Y-77489407D01*
X69225646Y-77639050D01*
X69232462Y-77671376D01*
X69244867Y-77775920D01*
X69248070Y-77891958D01*
X69248458Y-77906030D01*
G37*
G36*
X63225633Y-77906030D02*
G01*
X63216436Y-78066545D01*
X63189623Y-78208741D01*
X63143803Y-78335634D01*
X63077583Y-78451080D01*
X62989568Y-78558935D01*
X62931308Y-78614253D01*
X62822999Y-78692987D01*
X62704811Y-78753982D01*
X62585047Y-78792443D01*
X62479847Y-78808910D01*
X62330486Y-78811241D01*
X62184734Y-78790060D01*
X62045980Y-78746822D01*
X61917614Y-78682978D01*
X61803024Y-78599983D01*
X61705599Y-78499290D01*
X61628729Y-78382352D01*
X61622101Y-78369579D01*
X61571695Y-78256470D01*
X61538296Y-78143867D01*
X61519878Y-78022955D01*
X61514693Y-77891958D01*
X61853595Y-77891958D01*
X61861241Y-78010111D01*
X61889089Y-78143766D01*
X61935948Y-78263622D01*
X62000389Y-78366927D01*
X62080981Y-78450928D01*
X62176293Y-78512873D01*
X62252216Y-78541270D01*
X62346910Y-78555168D01*
X62451213Y-78551288D01*
X62544695Y-78525648D01*
X62629867Y-78476044D01*
X62711611Y-78400406D01*
X62741835Y-78365217D01*
X62807027Y-78266999D01*
X62851833Y-78158146D01*
X62877674Y-78034514D01*
X62885972Y-77891958D01*
X62885851Y-77875151D01*
X62872410Y-77722716D01*
X62836901Y-77586589D01*
X62779561Y-77467445D01*
X62700626Y-77365958D01*
X62666124Y-77333388D01*
X62580100Y-77275726D01*
X62482901Y-77242109D01*
X62370695Y-77230969D01*
X62368311Y-77230962D01*
X62306612Y-77232329D01*
X62260080Y-77238678D01*
X62216217Y-77252799D01*
X62162527Y-77277486D01*
X62090407Y-77321652D01*
X62007722Y-77400008D01*
X61941554Y-77498493D01*
X61893047Y-77614831D01*
X61863346Y-77746745D01*
X61853595Y-77891958D01*
X61514693Y-77891958D01*
X61514415Y-77884922D01*
X61515094Y-77832885D01*
X61522046Y-77720889D01*
X61537936Y-77623754D01*
X61564545Y-77532577D01*
X61603651Y-77438455D01*
X61651456Y-77349473D01*
X61738911Y-77233227D01*
X61845828Y-77137023D01*
X61972710Y-77060438D01*
X62120058Y-77003048D01*
X62128071Y-77000711D01*
X62218234Y-76983821D01*
X62323955Y-76977321D01*
X62435735Y-76980948D01*
X62544071Y-76994437D01*
X62639463Y-77017523D01*
X62749318Y-77061730D01*
X62877517Y-77139070D01*
X62988754Y-77237444D01*
X63081242Y-77354881D01*
X63153193Y-77489407D01*
X63202820Y-77639050D01*
X63209637Y-77671376D01*
X63222042Y-77775920D01*
X63225245Y-77891958D01*
X63225633Y-77906030D01*
G37*
G36*
X55646928Y-76288335D02*
G01*
X55830418Y-76312315D01*
X56003106Y-76356621D01*
X56160151Y-76420741D01*
X56204087Y-76443788D01*
X56355849Y-76542509D01*
X56487205Y-76660418D01*
X56597737Y-76796930D01*
X56687025Y-76951464D01*
X56754651Y-77123435D01*
X56800197Y-77312261D01*
X56807035Y-77359342D01*
X56815762Y-77473885D01*
X56816923Y-77600332D01*
X56810853Y-77728845D01*
X56797887Y-77849586D01*
X56778362Y-77952719D01*
X56744624Y-78065555D01*
X56673509Y-78227959D01*
X56580915Y-78373129D01*
X56468152Y-78499883D01*
X56336528Y-78607038D01*
X56187351Y-78693413D01*
X56021930Y-78757826D01*
X55841573Y-78799093D01*
X55831696Y-78800512D01*
X55760233Y-78806371D01*
X55669870Y-78808448D01*
X55568229Y-78807055D01*
X55462930Y-78802501D01*
X55361594Y-78795098D01*
X55271843Y-78785157D01*
X55201296Y-78772987D01*
X55137109Y-78757419D01*
X55063122Y-78735957D01*
X55008037Y-78715408D01*
X54974821Y-78696925D01*
X54966441Y-78681662D01*
X54967757Y-78677509D01*
X54974868Y-78649598D01*
X54985418Y-78604185D01*
X54997644Y-78548775D01*
X55006348Y-78509347D01*
X55017073Y-78467898D01*
X55026639Y-78446018D01*
X55037544Y-78438799D01*
X55052284Y-78441330D01*
X55080620Y-78450580D01*
X55180269Y-78480734D01*
X55266281Y-78501503D01*
X55348309Y-78514524D01*
X55436006Y-78521433D01*
X55539024Y-78523867D01*
X55574537Y-78524025D01*
X55651494Y-78523377D01*
X55710216Y-78520607D01*
X55757866Y-78514985D01*
X55801609Y-78505779D01*
X55848609Y-78492258D01*
X55944128Y-78457642D01*
X56082615Y-78386136D01*
X56200136Y-78295906D01*
X56296606Y-78187079D01*
X56371940Y-78059779D01*
X56426055Y-77914132D01*
X56458865Y-77750265D01*
X56470287Y-77568301D01*
X56465316Y-77434464D01*
X56440024Y-77261389D01*
X56393618Y-77105952D01*
X56326406Y-76968631D01*
X56238695Y-76849908D01*
X56130793Y-76750259D01*
X56003007Y-76670166D01*
X55855645Y-76610106D01*
X55754766Y-76584710D01*
X55605647Y-76566225D01*
X55450973Y-76566123D01*
X55299705Y-76584270D01*
X55160805Y-76620533D01*
X55125579Y-76632783D01*
X55084427Y-76646971D01*
X55059577Y-76655383D01*
X55047368Y-76653408D01*
X55034438Y-76635965D01*
X55019186Y-76598977D01*
X54999593Y-76538508D01*
X54991003Y-76510052D01*
X54976011Y-76458616D01*
X54965690Y-76420729D01*
X54961893Y-76403050D01*
X54974649Y-76389018D01*
X55009281Y-76371223D01*
X55060069Y-76351949D01*
X55121290Y-76333366D01*
X55187224Y-76317640D01*
X55266903Y-76303405D01*
X55457476Y-76285194D01*
X55646928Y-76288335D01*
G37*
G36*
X52804380Y-76288335D02*
G01*
X52987870Y-76312315D01*
X53160558Y-76356621D01*
X53317602Y-76420741D01*
X53361538Y-76443788D01*
X53513301Y-76542509D01*
X53644657Y-76660418D01*
X53755188Y-76796930D01*
X53844476Y-76951464D01*
X53912102Y-77123435D01*
X53957648Y-77312261D01*
X53964486Y-77359342D01*
X53973213Y-77473885D01*
X53974374Y-77600332D01*
X53968304Y-77728845D01*
X53955339Y-77849586D01*
X53935813Y-77952719D01*
X53902076Y-78065555D01*
X53830960Y-78227959D01*
X53738367Y-78373129D01*
X53625603Y-78499883D01*
X53493979Y-78607038D01*
X53344802Y-78693413D01*
X53179381Y-78757826D01*
X52999024Y-78799093D01*
X52989148Y-78800512D01*
X52917684Y-78806371D01*
X52827321Y-78808448D01*
X52725680Y-78807055D01*
X52620381Y-78802501D01*
X52519046Y-78795098D01*
X52429294Y-78785157D01*
X52358747Y-78772987D01*
X52294561Y-78757419D01*
X52220574Y-78735957D01*
X52165489Y-78715408D01*
X52132273Y-78696925D01*
X52123893Y-78681662D01*
X52125208Y-78677509D01*
X52132320Y-78649598D01*
X52142870Y-78604185D01*
X52155096Y-78548775D01*
X52163799Y-78509347D01*
X52174524Y-78467898D01*
X52184091Y-78446018D01*
X52194996Y-78438799D01*
X52209735Y-78441330D01*
X52238071Y-78450580D01*
X52337721Y-78480734D01*
X52423733Y-78501503D01*
X52505761Y-78514524D01*
X52593457Y-78521433D01*
X52696476Y-78523867D01*
X52731989Y-78524025D01*
X52808946Y-78523377D01*
X52867667Y-78520607D01*
X52915318Y-78514985D01*
X52959060Y-78505779D01*
X53006060Y-78492258D01*
X53101580Y-78457642D01*
X53240067Y-78386136D01*
X53357587Y-78295906D01*
X53454057Y-78187079D01*
X53529392Y-78059779D01*
X53583506Y-77914132D01*
X53616317Y-77750265D01*
X53627738Y-77568301D01*
X53622768Y-77434464D01*
X53597475Y-77261389D01*
X53551069Y-77105952D01*
X53483857Y-76968631D01*
X53396147Y-76849908D01*
X53288245Y-76750259D01*
X53160459Y-76670166D01*
X53013096Y-76610106D01*
X52912218Y-76584710D01*
X52763099Y-76566225D01*
X52608424Y-76566123D01*
X52457156Y-76584270D01*
X52318257Y-76620533D01*
X52283030Y-76632783D01*
X52241879Y-76646971D01*
X52217028Y-76655383D01*
X52204819Y-76653408D01*
X52191890Y-76635965D01*
X52176638Y-76598977D01*
X52157044Y-76538508D01*
X52148455Y-76510052D01*
X52133462Y-76458616D01*
X52123141Y-76420729D01*
X52119345Y-76403050D01*
X52132100Y-76389018D01*
X52166733Y-76371223D01*
X52217520Y-76351949D01*
X52278741Y-76333366D01*
X52344675Y-76317640D01*
X52424354Y-76303405D01*
X52614928Y-76285194D01*
X52804380Y-76288335D01*
G37*
G36*
X78845585Y-77966275D02*
G01*
X78862270Y-77976217D01*
X78868542Y-77997171D01*
X78867615Y-78037562D01*
X78866287Y-78055248D01*
X78860287Y-78087589D01*
X78846069Y-78104473D01*
X78817667Y-78115171D01*
X78801319Y-78120231D01*
X78781462Y-78131872D01*
X78773432Y-78153392D01*
X78771933Y-78193909D01*
X78769595Y-78233654D01*
X78757402Y-78267917D01*
X78729717Y-78300046D01*
X78712108Y-78317889D01*
X78698381Y-78337953D01*
X78691020Y-78363526D01*
X78688051Y-78402152D01*
X78687501Y-78461374D01*
X78687126Y-78515657D01*
X78684621Y-78555561D01*
X78677974Y-78581373D01*
X78665172Y-78600474D01*
X78644203Y-78620248D01*
X78600905Y-78658242D01*
X78609356Y-78774656D01*
X78613335Y-78833163D01*
X78618246Y-78911318D01*
X78623353Y-78997326D01*
X78628028Y-79080898D01*
X78629587Y-79109732D01*
X78633601Y-79177509D01*
X78637649Y-79223678D01*
X78642869Y-79253087D01*
X78650400Y-79270583D01*
X78661379Y-79281014D01*
X78676947Y-79289228D01*
X78697811Y-79301284D01*
X78709711Y-79317764D01*
X78714740Y-79346294D01*
X78715860Y-79394914D01*
X78715910Y-79405076D01*
X78718053Y-79457670D01*
X78725431Y-79490869D01*
X78740941Y-79512211D01*
X78767479Y-79529236D01*
X78787796Y-79547496D01*
X78802660Y-79584113D01*
X78812543Y-79613813D01*
X78838775Y-79627313D01*
X78840312Y-79627541D01*
X78859641Y-79634796D01*
X78868386Y-79653921D01*
X78870437Y-79692982D01*
X78870115Y-79705789D01*
X78864296Y-79743241D01*
X78852847Y-79761253D01*
X78822538Y-79769434D01*
X78794324Y-79760894D01*
X78778966Y-79728343D01*
X78766775Y-79698400D01*
X78736460Y-79677774D01*
X78713535Y-79665653D01*
X78694435Y-79629392D01*
X78682988Y-79601642D01*
X78654909Y-79584975D01*
X78645469Y-79583048D01*
X78633695Y-79575218D01*
X78626665Y-79556738D01*
X78622691Y-79521778D01*
X78620089Y-79464506D01*
X78618179Y-79416996D01*
X78614970Y-79378526D01*
X78609130Y-79358034D01*
X78598818Y-79349877D01*
X78582189Y-79348412D01*
X78558802Y-79346263D01*
X78540509Y-79337708D01*
X78526815Y-79319643D01*
X78517070Y-79288964D01*
X78510623Y-79242566D01*
X78506823Y-79177345D01*
X78505021Y-79090197D01*
X78504564Y-78978018D01*
X78504564Y-78670174D01*
X78546780Y-78630739D01*
X78565741Y-78611087D01*
X78584257Y-78577077D01*
X78588996Y-78531106D01*
X78588837Y-78522556D01*
X78583036Y-78469478D01*
X78571480Y-78422467D01*
X78571268Y-78421881D01*
X78562518Y-78393612D01*
X78564207Y-78373473D01*
X78580034Y-78352712D01*
X78613696Y-78322580D01*
X78622539Y-78314861D01*
X78654530Y-78282495D01*
X78669634Y-78253994D01*
X78673429Y-78219754D01*
X78673435Y-78218335D01*
X78682558Y-78170530D01*
X78705828Y-78136873D01*
X78738620Y-78124146D01*
X78750062Y-78120030D01*
X78754319Y-78101483D01*
X78750276Y-78062070D01*
X78749066Y-78053751D01*
X78746402Y-78016978D01*
X78753824Y-77995280D01*
X78774356Y-77978118D01*
X78801711Y-77966144D01*
X78839787Y-77964621D01*
X78845585Y-77966275D01*
G37*
G36*
X81057109Y-77302456D02*
G01*
X81064279Y-77321348D01*
X81065672Y-77352796D01*
X81059503Y-77401876D01*
X81035246Y-77444082D01*
X81033007Y-77446540D01*
X81015340Y-77474936D01*
X81003818Y-77516493D01*
X80996281Y-77578673D01*
X80995407Y-77588839D01*
X80988153Y-77651057D01*
X80978675Y-77690084D01*
X80965394Y-77710293D01*
X80946735Y-77716057D01*
X80946428Y-77716059D01*
X80929380Y-77723044D01*
X80918438Y-77746246D01*
X80912603Y-77789582D01*
X80910880Y-77856970D01*
X80910853Y-77871270D01*
X80909414Y-77917752D01*
X80903758Y-77946381D01*
X80891102Y-77965493D01*
X80868664Y-77983426D01*
X80857400Y-77991688D01*
X80840135Y-78008348D01*
X80830876Y-78029564D01*
X80827141Y-78063198D01*
X80826448Y-78117110D01*
X80826349Y-78144828D01*
X80824571Y-78188473D01*
X80818613Y-78215443D01*
X80805994Y-78233596D01*
X80784232Y-78250794D01*
X80770368Y-78261074D01*
X80754482Y-78277442D01*
X80746009Y-78299153D01*
X80742627Y-78333806D01*
X80742016Y-78389000D01*
X80741898Y-78417862D01*
X80740002Y-78463445D01*
X80733925Y-78492985D01*
X80721310Y-78514746D01*
X80699800Y-78536991D01*
X80680450Y-78556848D01*
X80665516Y-78581390D01*
X80659009Y-78613843D01*
X80657584Y-78664297D01*
X80655972Y-78704009D01*
X80649902Y-78745830D01*
X80640697Y-78768645D01*
X80617097Y-78782748D01*
X80587339Y-78782291D01*
X80567621Y-78763272D01*
X80564517Y-78749978D01*
X80560608Y-78712352D01*
X80559080Y-78665263D01*
X80559069Y-78660750D01*
X80556595Y-78615377D01*
X80548047Y-78589290D01*
X80530935Y-78574451D01*
X80520816Y-78567679D01*
X80509515Y-78550396D01*
X80504150Y-78519640D01*
X80502791Y-78468114D01*
X80501840Y-78418249D01*
X80497318Y-78388641D01*
X80486737Y-78372023D01*
X80467611Y-78360810D01*
X80464793Y-78359505D01*
X80447151Y-78348380D01*
X80437425Y-78331213D01*
X80433293Y-78300641D01*
X80432431Y-78249303D01*
X80432406Y-78235033D01*
X80431092Y-78189401D01*
X80425914Y-78162598D01*
X80414314Y-78147086D01*
X80393733Y-78135330D01*
X80387026Y-78132019D01*
X80369301Y-78119813D01*
X80359133Y-78101378D01*
X80353888Y-78069410D01*
X80350934Y-78016603D01*
X80349986Y-77996959D01*
X80344778Y-77945373D01*
X80335144Y-77912588D01*
X80319272Y-77891430D01*
X80311901Y-77883868D01*
X80299515Y-77861112D01*
X80293370Y-77825784D01*
X80291711Y-77770164D01*
X80289901Y-77721522D01*
X80284899Y-77686830D01*
X80277639Y-77673841D01*
X80267068Y-77671938D01*
X80240377Y-77652014D01*
X80221396Y-77619188D01*
X80217512Y-77584441D01*
X80222221Y-77564603D01*
X80231097Y-77546466D01*
X80247491Y-77531371D01*
X80275372Y-77517388D01*
X80318707Y-77502587D01*
X80381464Y-77485038D01*
X80467611Y-77462813D01*
X80491790Y-77456445D01*
X80536134Y-77443685D01*
X80566116Y-77433638D01*
X80568502Y-77432715D01*
X80598480Y-77422680D01*
X80645260Y-77408360D01*
X80699800Y-77392534D01*
X80761832Y-77374483D01*
X80840620Y-77350607D01*
X80911303Y-77328308D01*
X80956067Y-77313990D01*
X81007490Y-77299489D01*
X81039675Y-77295407D01*
X81057109Y-77302456D01*
G37*
G36*
X65249512Y-77993097D02*
G01*
X65227314Y-78150215D01*
X65184114Y-78290507D01*
X65119251Y-78415873D01*
X65032065Y-78528217D01*
X64969448Y-78590537D01*
X64868521Y-78667932D01*
X64761516Y-78720756D01*
X64643599Y-78751168D01*
X64509938Y-78761325D01*
X64474566Y-78760929D01*
X64340222Y-78746625D01*
X64221957Y-78711006D01*
X64116600Y-78652837D01*
X64020978Y-78570883D01*
X63954093Y-78502215D01*
X63954093Y-78647952D01*
X63955472Y-78712793D01*
X63968630Y-78839257D01*
X63996589Y-78945820D01*
X64040423Y-79035877D01*
X64101207Y-79112824D01*
X64181673Y-79177251D01*
X64282236Y-79225448D01*
X64396639Y-79254483D01*
X64521187Y-79264082D01*
X64652184Y-79253971D01*
X64785935Y-79223876D01*
X64918745Y-79173521D01*
X64935064Y-79166128D01*
X64981002Y-79147056D01*
X65014251Y-79135881D01*
X65028508Y-79134824D01*
X65036979Y-79155272D01*
X65050159Y-79192960D01*
X65065702Y-79240467D01*
X65081329Y-79290500D01*
X65094762Y-79335762D01*
X65103723Y-79368957D01*
X65105934Y-79382792D01*
X65097434Y-79387871D01*
X65069564Y-79402690D01*
X65030002Y-79422874D01*
X64985675Y-79443332D01*
X64859085Y-79486808D01*
X64720471Y-79515695D01*
X64554576Y-79529941D01*
X64394544Y-79524033D01*
X64244358Y-79498750D01*
X64106506Y-79455094D01*
X63983472Y-79394062D01*
X63877742Y-79316655D01*
X63791803Y-79223871D01*
X63728139Y-79116711D01*
X63723894Y-79107270D01*
X63703509Y-79058933D01*
X63685855Y-79010261D01*
X63670738Y-78958936D01*
X63657962Y-78902641D01*
X63647330Y-78839059D01*
X63638647Y-78765873D01*
X63631717Y-78680766D01*
X63626344Y-78581420D01*
X63622332Y-78465518D01*
X63619484Y-78330744D01*
X63617606Y-78174780D01*
X63616502Y-77995309D01*
X63616394Y-77953479D01*
X63955077Y-77953479D01*
X63956371Y-78023146D01*
X63959985Y-78077478D01*
X63966234Y-78121969D01*
X63975430Y-78162114D01*
X63978640Y-78173428D01*
X64022441Y-78276132D01*
X64087031Y-78364694D01*
X64168739Y-78435030D01*
X64263897Y-78483060D01*
X64298984Y-78492255D01*
X64368657Y-78500770D01*
X64445871Y-78502024D01*
X64519047Y-78496027D01*
X64576603Y-78482789D01*
X64606451Y-78470506D01*
X64699810Y-78413150D01*
X64780290Y-78333612D01*
X64844879Y-78235355D01*
X64890564Y-78121843D01*
X64903851Y-78065356D01*
X64916579Y-77953325D01*
X64916232Y-77833378D01*
X64903087Y-77716181D01*
X64877418Y-77612399D01*
X64864053Y-77575352D01*
X64816464Y-77473476D01*
X64758909Y-77392860D01*
X64688194Y-77328719D01*
X64673499Y-77318240D01*
X64583789Y-77268630D01*
X64490327Y-77243546D01*
X64384992Y-77240628D01*
X64336357Y-77245863D01*
X64228017Y-77275410D01*
X64135152Y-77328386D01*
X64058397Y-77404358D01*
X63998392Y-77502895D01*
X63988102Y-77525576D01*
X63977231Y-77554070D01*
X63969504Y-77584313D01*
X63964237Y-77621585D01*
X63960752Y-77671163D01*
X63958367Y-77738326D01*
X63956399Y-77828354D01*
X63955791Y-77862984D01*
X63955077Y-77953479D01*
X63616394Y-77953479D01*
X63615974Y-77790013D01*
X63614905Y-77019492D01*
X63754502Y-77015502D01*
X63894099Y-77011513D01*
X63902988Y-77055959D01*
X63905905Y-77074796D01*
X63910191Y-77123763D01*
X63911877Y-77176846D01*
X63911877Y-77253285D01*
X63990797Y-77168042D01*
X64025465Y-77133219D01*
X64120970Y-77061238D01*
X64229687Y-77011945D01*
X64355506Y-76983372D01*
X64379386Y-76980411D01*
X64523665Y-76978226D01*
X64662046Y-77003142D01*
X64792722Y-77054479D01*
X64913885Y-77131562D01*
X65023727Y-77233713D01*
X65069792Y-77289044D01*
X65150349Y-77417004D01*
X65207584Y-77559695D01*
X65241731Y-77717789D01*
X65253024Y-77891958D01*
X65250893Y-77953325D01*
X65249512Y-77993097D01*
G37*
G36*
X60070937Y-76323115D02*
G01*
X60143541Y-76324628D01*
X60192519Y-76327867D01*
X60220823Y-76333080D01*
X60231407Y-76340517D01*
X60232371Y-76347054D01*
X60235392Y-76379013D01*
X60239946Y-76434907D01*
X60245868Y-76512262D01*
X60252988Y-76608598D01*
X60261141Y-76721441D01*
X60270159Y-76848313D01*
X60279873Y-76986738D01*
X60290117Y-77134238D01*
X60300722Y-77288338D01*
X60311523Y-77446561D01*
X60322351Y-77606429D01*
X60333038Y-77765467D01*
X60343418Y-77921197D01*
X60353322Y-78071143D01*
X60362584Y-78212828D01*
X60371036Y-78343776D01*
X60378510Y-78461510D01*
X60384839Y-78563553D01*
X60389856Y-78647429D01*
X60393392Y-78710660D01*
X60395282Y-78750771D01*
X60395356Y-78765284D01*
X60384559Y-78767340D01*
X60350506Y-78769472D01*
X60299219Y-78770923D01*
X60236734Y-78771459D01*
X60198060Y-78771409D01*
X60143957Y-78770647D01*
X60110457Y-78768165D01*
X60092632Y-78762957D01*
X60085552Y-78754015D01*
X60084287Y-78740334D01*
X60084202Y-78736764D01*
X60082840Y-78708071D01*
X60079966Y-78655483D01*
X60075766Y-78582189D01*
X60070427Y-78491382D01*
X60064136Y-78386253D01*
X60057080Y-78269992D01*
X60049447Y-78145792D01*
X60047311Y-78111214D01*
X60033615Y-77886976D01*
X60021820Y-77689013D01*
X60011844Y-77515752D01*
X60003608Y-77365622D01*
X59997030Y-77237051D01*
X59992029Y-77128467D01*
X59988525Y-77038298D01*
X59986436Y-76964972D01*
X59985682Y-76906916D01*
X59985554Y-76881665D01*
X59983808Y-76807189D01*
X59979787Y-76760188D01*
X59973134Y-76740183D01*
X59963491Y-76746697D01*
X59950503Y-76779251D01*
X59933810Y-76837365D01*
X59932611Y-76841904D01*
X59903332Y-76949196D01*
X59869854Y-77065275D01*
X59831376Y-77192654D01*
X59787099Y-77333847D01*
X59736222Y-77491368D01*
X59677945Y-77667730D01*
X59611468Y-77865448D01*
X59535990Y-78087034D01*
X59528387Y-78109241D01*
X59484383Y-78237919D01*
X59443423Y-78357926D01*
X59406379Y-78466697D01*
X59374119Y-78561668D01*
X59347515Y-78640275D01*
X59327434Y-78699954D01*
X59314748Y-78738140D01*
X59310326Y-78752270D01*
X59306514Y-78753634D01*
X59281068Y-78755251D01*
X59236986Y-78755539D01*
X59180462Y-78754397D01*
X59050599Y-78750351D01*
X58842348Y-78180434D01*
X58794046Y-78047408D01*
X58738304Y-77892219D01*
X58680960Y-77731069D01*
X58624296Y-77570427D01*
X58570594Y-77416762D01*
X58522133Y-77276541D01*
X58481195Y-77156233D01*
X58328291Y-76701949D01*
X58319082Y-76924045D01*
X58318969Y-76926770D01*
X58315978Y-76994846D01*
X58311789Y-77084990D01*
X58306586Y-77193618D01*
X58300552Y-77317146D01*
X58293870Y-77451990D01*
X58286723Y-77594565D01*
X58279294Y-77741287D01*
X58271766Y-77888572D01*
X58264323Y-78032836D01*
X58257148Y-78170495D01*
X58250423Y-78297964D01*
X58244333Y-78411658D01*
X58239059Y-78507995D01*
X58234786Y-78583389D01*
X58231696Y-78634257D01*
X58222757Y-78771459D01*
X58062940Y-78771459D01*
X57903124Y-78771459D01*
X57903979Y-78718689D01*
X57904309Y-78710132D01*
X57906214Y-78673869D01*
X57909687Y-78612893D01*
X57914596Y-78529392D01*
X57920808Y-78425552D01*
X57928191Y-78303563D01*
X57936611Y-78165612D01*
X57945936Y-78013886D01*
X57956034Y-77850574D01*
X57966771Y-77677863D01*
X57978015Y-77497941D01*
X58051197Y-76329963D01*
X58260227Y-76329963D01*
X58469256Y-76329963D01*
X58700043Y-76956168D01*
X58714837Y-76996357D01*
X58800302Y-77230493D01*
X58877207Y-77444723D01*
X58945199Y-77638022D01*
X59003928Y-77809369D01*
X59053042Y-77957740D01*
X59092190Y-78082113D01*
X59121020Y-78181465D01*
X59134310Y-78227113D01*
X59146911Y-78264542D01*
X59155352Y-78282996D01*
X59158616Y-78282055D01*
X59168772Y-78262185D01*
X59182426Y-78223179D01*
X59197560Y-78170420D01*
X59219032Y-78091343D01*
X59250338Y-77983127D01*
X59287373Y-77862087D01*
X59330868Y-77725985D01*
X59381553Y-77572580D01*
X59440161Y-77399632D01*
X59507422Y-77204900D01*
X59584068Y-76986145D01*
X59622667Y-76876655D01*
X59664809Y-76757235D01*
X59703457Y-76647836D01*
X59737638Y-76551212D01*
X59766375Y-76470117D01*
X59788694Y-76407306D01*
X59803619Y-76365533D01*
X59810174Y-76347553D01*
X59814817Y-76339751D01*
X59826555Y-76332336D01*
X59848834Y-76327456D01*
X59886053Y-76324600D01*
X59942612Y-76323260D01*
X60022910Y-76322927D01*
X60070937Y-76323115D01*
G37*
G36*
X84024338Y-74536180D02*
G01*
X84011067Y-74710014D01*
X83994440Y-74909217D01*
X83974407Y-75134641D01*
X83950919Y-75387138D01*
X83950362Y-75393055D01*
X83944525Y-75458781D01*
X83937621Y-75541473D01*
X83930466Y-75631149D01*
X83923877Y-75717830D01*
X83922160Y-75740748D01*
X83915990Y-75818012D01*
X83909861Y-75887946D01*
X83904401Y-75943635D01*
X83900239Y-75978163D01*
X83899838Y-75980816D01*
X83895383Y-76014338D01*
X83890244Y-76060388D01*
X83884183Y-76121555D01*
X83876962Y-76200429D01*
X83868344Y-76299600D01*
X83858091Y-76421656D01*
X83845965Y-76569187D01*
X83839985Y-76641307D01*
X83831476Y-76740688D01*
X83823006Y-76836402D01*
X83815300Y-76920321D01*
X83809078Y-76984312D01*
X83805030Y-77024197D01*
X83797958Y-77094819D01*
X83791783Y-77157587D01*
X83787502Y-77202428D01*
X83786509Y-77213106D01*
X83782025Y-77260539D01*
X83775747Y-77326297D01*
X83768365Y-77403149D01*
X83760572Y-77483869D01*
X83758399Y-77506319D01*
X83747949Y-77614614D01*
X83739443Y-77703537D01*
X83732198Y-77780391D01*
X83725531Y-77852479D01*
X83718758Y-77927105D01*
X83711196Y-78011570D01*
X83708291Y-78044072D01*
X83701319Y-78121711D01*
X83693023Y-78213761D01*
X83684202Y-78311344D01*
X83675657Y-78405586D01*
X83671069Y-78456239D01*
X83662437Y-78552185D01*
X83654066Y-78645970D01*
X83646724Y-78728971D01*
X83641179Y-78792567D01*
X83637471Y-78834839D01*
X83629606Y-78921733D01*
X83619759Y-79028171D01*
X83608418Y-79148955D01*
X83596074Y-79278890D01*
X83583214Y-79412777D01*
X83570329Y-79545420D01*
X83566452Y-79585429D01*
X83556843Y-79686809D01*
X83546291Y-79800566D01*
X83535402Y-79919967D01*
X83524784Y-80038281D01*
X83515041Y-80148776D01*
X83506782Y-80244720D01*
X83500612Y-80319381D01*
X83492525Y-80416013D01*
X83480638Y-80536112D01*
X83467786Y-80633758D01*
X83452941Y-80712329D01*
X83435079Y-80775201D01*
X83413173Y-80825750D01*
X83386199Y-80867352D01*
X83353130Y-80903385D01*
X83312942Y-80937224D01*
X83311327Y-80938464D01*
X83257690Y-80979468D01*
X83215023Y-81011301D01*
X83176355Y-81038777D01*
X83134717Y-81066708D01*
X83083137Y-81099907D01*
X83014647Y-81143186D01*
X83004623Y-81149515D01*
X82947584Y-81186187D01*
X82900570Y-81217496D01*
X82868218Y-81240296D01*
X82855164Y-81251440D01*
X82853579Y-81254038D01*
X82835164Y-81262207D01*
X82822411Y-81265837D01*
X82797608Y-81282341D01*
X82775159Y-81299638D01*
X82740212Y-81321350D01*
X82737408Y-81322883D01*
X82707390Y-81340735D01*
X82666134Y-81366723D01*
X82620661Y-81396236D01*
X82577993Y-81424668D01*
X82545153Y-81447410D01*
X82529163Y-81459853D01*
X82526080Y-81462665D01*
X82504993Y-81478761D01*
X82472875Y-81501492D01*
X82462329Y-81508832D01*
X82395307Y-81559729D01*
X82338853Y-81609799D01*
X82297572Y-81654635D01*
X82276071Y-81689829D01*
X82273357Y-81698757D01*
X82265113Y-81743852D01*
X82261794Y-81793399D01*
X82261444Y-81805459D01*
X82254220Y-81857237D01*
X82240594Y-81900691D01*
X82237363Y-81907324D01*
X82230956Y-81918486D01*
X82221896Y-81930181D01*
X82208102Y-81943911D01*
X82187496Y-81961181D01*
X82157998Y-81983492D01*
X82117527Y-82012347D01*
X82064005Y-82049251D01*
X81995351Y-82095704D01*
X81909487Y-82153211D01*
X81804331Y-82223274D01*
X81677805Y-82307396D01*
X81615782Y-82348656D01*
X81536243Y-82401685D01*
X81465150Y-82449213D01*
X81406258Y-82488727D01*
X81363316Y-82517711D01*
X81340077Y-82533654D01*
X81336045Y-82536451D01*
X81309538Y-82554463D01*
X81262444Y-82586237D01*
X81196841Y-82630378D01*
X81114808Y-82685490D01*
X81018424Y-82750178D01*
X80909765Y-82823048D01*
X80790912Y-82902704D01*
X80663943Y-82987751D01*
X80530935Y-83076793D01*
X80417168Y-83152919D01*
X80280292Y-83244409D01*
X80163636Y-83322159D01*
X80065378Y-83387288D01*
X79983696Y-83440913D01*
X79916766Y-83484154D01*
X79862765Y-83518129D01*
X79819870Y-83543955D01*
X79786259Y-83562752D01*
X79760108Y-83575637D01*
X79739595Y-83583729D01*
X79722896Y-83588146D01*
X79708189Y-83590007D01*
X79693650Y-83590429D01*
X79683046Y-83590309D01*
X79635170Y-83584464D01*
X79583094Y-83567843D01*
X79517473Y-83537647D01*
X79516353Y-83537084D01*
X79464893Y-83511655D01*
X79431121Y-83497469D01*
X79407713Y-83493152D01*
X79387341Y-83497332D01*
X79362681Y-83508636D01*
X79344252Y-83518508D01*
X79300739Y-83544042D01*
X79246302Y-83577660D01*
X79188568Y-83614714D01*
X79147902Y-83641093D01*
X79102523Y-83669828D01*
X79070232Y-83689422D01*
X79056212Y-83696667D01*
X79054095Y-83697248D01*
X79035022Y-83708529D01*
X79005449Y-83729657D01*
X78998309Y-83735002D01*
X78967448Y-83756656D01*
X78947602Y-83768356D01*
X78946758Y-83768750D01*
X78928193Y-83779922D01*
X78890553Y-83803902D01*
X78837654Y-83838218D01*
X78773311Y-83880395D01*
X78701342Y-83927962D01*
X78631072Y-83974391D01*
X78538928Y-84034704D01*
X78451922Y-84091045D01*
X78373104Y-84141481D01*
X78305524Y-84184077D01*
X78252231Y-84216898D01*
X78216278Y-84238009D01*
X78200713Y-84245476D01*
X78198993Y-84246016D01*
X78179625Y-84256629D01*
X78144444Y-84278022D01*
X78099540Y-84306520D01*
X78036020Y-84347280D01*
X77942496Y-84405959D01*
X77869597Y-84449644D01*
X77815867Y-84479193D01*
X77779855Y-84495467D01*
X77744532Y-84506390D01*
X77710384Y-84510320D01*
X77676053Y-84503912D01*
X77636152Y-84485278D01*
X77585295Y-84452531D01*
X77518095Y-84403786D01*
X77516879Y-84402881D01*
X77421022Y-84330076D01*
X77314395Y-84246576D01*
X77203709Y-84157822D01*
X77095677Y-84069257D01*
X76997012Y-83986321D01*
X76914426Y-83914455D01*
X76913288Y-83913440D01*
X76775090Y-83786114D01*
X76627647Y-83643188D01*
X76476194Y-83490155D01*
X76325965Y-83332506D01*
X76182193Y-83175733D01*
X76050113Y-83025327D01*
X75934959Y-82886780D01*
X75899422Y-82842533D01*
X75853442Y-82785550D01*
X75815853Y-82739516D01*
X75781032Y-82697626D01*
X75743355Y-82653072D01*
X75697196Y-82599049D01*
X75672371Y-82569950D01*
X75635445Y-82526312D01*
X75607016Y-82492314D01*
X75573672Y-82452700D01*
X75492861Y-82361811D01*
X75410495Y-82275418D01*
X75332543Y-82199658D01*
X75264974Y-82140668D01*
X75248349Y-82127248D01*
X75194034Y-82082822D01*
X75143479Y-82040709D01*
X75105825Y-82008502D01*
X75086345Y-81991653D01*
X75035337Y-81948919D01*
X74986551Y-81909520D01*
X74984359Y-81907791D01*
X74941152Y-81872345D01*
X74888813Y-81827623D01*
X74838177Y-81782872D01*
X74803426Y-81751770D01*
X74750005Y-81704382D01*
X74685351Y-81647320D01*
X74614668Y-81585176D01*
X74543158Y-81522539D01*
X74477498Y-81465098D01*
X74406294Y-81402708D01*
X74340577Y-81345031D01*
X74285586Y-81296664D01*
X74246560Y-81262207D01*
X74228680Y-81246418D01*
X74171760Y-81196620D01*
X74108203Y-81141510D01*
X74048721Y-81090390D01*
X74018352Y-81064373D01*
X73969399Y-81022142D01*
X73928715Y-80986690D01*
X73902888Y-80963742D01*
X73884263Y-80947287D01*
X73844822Y-80913854D01*
X73802016Y-80878744D01*
X73736448Y-80825974D01*
X64406090Y-80825974D01*
X55075732Y-80825974D01*
X55061801Y-80773204D01*
X55061540Y-80772216D01*
X55052150Y-80735826D01*
X55037770Y-80679161D01*
X55019310Y-80605880D01*
X54997680Y-80519642D01*
X54973791Y-80424108D01*
X54958097Y-80361196D01*
X61645957Y-80361196D01*
X61651252Y-80422941D01*
X61667608Y-80478687D01*
X61695360Y-80521242D01*
X61711181Y-80531852D01*
X61753281Y-80542788D01*
X61801870Y-80542408D01*
X61844215Y-80529967D01*
X61862820Y-80522587D01*
X61871434Y-80529967D01*
X61876715Y-80538436D01*
X61899578Y-80544534D01*
X61907617Y-80543915D01*
X61915775Y-80539114D01*
X61921365Y-80526115D01*
X61924872Y-80500927D01*
X61926778Y-80459562D01*
X61927567Y-80398031D01*
X61927620Y-80368633D01*
X62068442Y-80368633D01*
X62068586Y-80428283D01*
X62069569Y-80482325D01*
X62072129Y-80516399D01*
X62076998Y-80535077D01*
X62084907Y-80542932D01*
X62096586Y-80544534D01*
X62112966Y-80540693D01*
X62124730Y-80522628D01*
X62125523Y-80511893D01*
X62133418Y-80508588D01*
X62156006Y-80522628D01*
X62158421Y-80524223D01*
X62195506Y-80538620D01*
X62239640Y-80544534D01*
X62259847Y-80543652D01*
X62292009Y-80535007D01*
X62311342Y-80516390D01*
X62504675Y-80516390D01*
X62504976Y-80522899D01*
X62511785Y-80536763D01*
X62532833Y-80543052D01*
X62575035Y-80544534D01*
X62645395Y-80544534D01*
X62645395Y-80505199D01*
X62872959Y-80505199D01*
X62890827Y-80524373D01*
X62903402Y-80531167D01*
X62946880Y-80541170D01*
X63001221Y-80543155D01*
X63055181Y-80537181D01*
X63097512Y-80523307D01*
X63100888Y-80521370D01*
X63137103Y-80484626D01*
X63162569Y-80429105D01*
X63176962Y-80361633D01*
X63179956Y-80289035D01*
X63171226Y-80218138D01*
X63167066Y-80205654D01*
X63686725Y-80205654D01*
X63689590Y-80228059D01*
X63708442Y-80249295D01*
X63747355Y-80252007D01*
X63759712Y-80251031D01*
X63796269Y-80257902D01*
X63831384Y-80284942D01*
X63835359Y-80289035D01*
X63839656Y-80293459D01*
X63855903Y-80314696D01*
X63864933Y-80339783D01*
X63868826Y-80376812D01*
X63869661Y-80433876D01*
X63870281Y-80481219D01*
X63873349Y-80519742D01*
X63879859Y-80539173D01*
X63890769Y-80544534D01*
X63890956Y-80544533D01*
X63899842Y-80540220D01*
X63905869Y-80524707D01*
X63909546Y-80493760D01*
X63911379Y-80443146D01*
X63911877Y-80368633D01*
X63911877Y-80367080D01*
X63911821Y-80359097D01*
X64083065Y-80359097D01*
X64087730Y-80368509D01*
X64088167Y-80368633D01*
X64105137Y-80373448D01*
X64140420Y-80375354D01*
X64198713Y-80375669D01*
X64215175Y-80375743D01*
X64275840Y-80378507D01*
X64310628Y-80386686D01*
X64321267Y-80402209D01*
X64309488Y-80427003D01*
X64277020Y-80462997D01*
X64272560Y-80467420D01*
X64242875Y-80492135D01*
X64214375Y-80500602D01*
X64172812Y-80497546D01*
X64149871Y-80495017D01*
X64117901Y-80496662D01*
X64104070Y-80508641D01*
X64103222Y-80519537D01*
X64117961Y-80536333D01*
X64127868Y-80538851D01*
X64163218Y-80542926D01*
X64208319Y-80544534D01*
X64245763Y-80542695D01*
X64284818Y-80531485D01*
X64318336Y-80507210D01*
X64502902Y-80507210D01*
X64505744Y-80518167D01*
X64525161Y-80535992D01*
X64528586Y-80537123D01*
X64560283Y-80542392D01*
X64601759Y-80544534D01*
X64639147Y-80540702D01*
X64668947Y-80524828D01*
X64687578Y-80492944D01*
X64697185Y-80441139D01*
X64699798Y-80368633D01*
X64910991Y-80368633D01*
X64911134Y-80428283D01*
X64912118Y-80482325D01*
X64914678Y-80516399D01*
X64919547Y-80535077D01*
X64927455Y-80542932D01*
X64939135Y-80544534D01*
X64955514Y-80540693D01*
X64967279Y-80522628D01*
X64968072Y-80511893D01*
X64975966Y-80508588D01*
X64998554Y-80522628D01*
X65000969Y-80524223D01*
X65038055Y-80538620D01*
X65082188Y-80544534D01*
X65102396Y-80543652D01*
X65134558Y-80535007D01*
X65156429Y-80513945D01*
X65169816Y-80476576D01*
X65176525Y-80419010D01*
X65177824Y-80361196D01*
X65304683Y-80361196D01*
X65309978Y-80422941D01*
X65326334Y-80478687D01*
X65354086Y-80521242D01*
X65369906Y-80531852D01*
X65412007Y-80542788D01*
X65460595Y-80542408D01*
X65502941Y-80529967D01*
X65516238Y-80524187D01*
X65525532Y-80528161D01*
X65529393Y-80549381D01*
X65530160Y-80593291D01*
X65530474Y-80621183D01*
X65533605Y-80653395D01*
X65542080Y-80667844D01*
X65558304Y-80671182D01*
X65567265Y-80670333D01*
X65575053Y-80664934D01*
X65580388Y-80651043D01*
X65583733Y-80624731D01*
X65585550Y-80582066D01*
X65585944Y-80548977D01*
X70145999Y-80548977D01*
X70147739Y-80567824D01*
X70170199Y-80614065D01*
X70215862Y-80649928D01*
X70228992Y-80655870D01*
X70282123Y-80668999D01*
X70339695Y-80671014D01*
X70391474Y-80662249D01*
X70427224Y-80643038D01*
X70448124Y-80613709D01*
X70453331Y-80575904D01*
X70433663Y-80544039D01*
X70421714Y-80529983D01*
X70426627Y-80511357D01*
X70439459Y-80484634D01*
X70437866Y-80447674D01*
X70420446Y-80418100D01*
X70412352Y-80410686D01*
X70408718Y-80399909D01*
X70582016Y-80399909D01*
X70582023Y-80413576D01*
X70582568Y-80474127D01*
X70584676Y-80512471D01*
X70589325Y-80533635D01*
X70597493Y-80542647D01*
X70610160Y-80544534D01*
X70621460Y-80543240D01*
X70630596Y-80535195D01*
X70635663Y-80515025D01*
X70637840Y-80477393D01*
X70638304Y-80416960D01*
X70638585Y-80391497D01*
X70641318Y-80333856D01*
X70646336Y-80288026D01*
X70652871Y-80262168D01*
X70676566Y-80239319D01*
X70712109Y-80239314D01*
X70756018Y-80264115D01*
X70771706Y-80277664D01*
X70783509Y-80294584D01*
X70789922Y-80319228D01*
X70792574Y-80358400D01*
X70793096Y-80418907D01*
X70793355Y-80467415D01*
X70795087Y-80509220D01*
X70799508Y-80532424D01*
X70807825Y-80542402D01*
X70821240Y-80544534D01*
X70830784Y-80543639D01*
X70839431Y-80537492D01*
X70844883Y-80521490D01*
X70847871Y-80491060D01*
X70849128Y-80441632D01*
X70849384Y-80368633D01*
X70976032Y-80368633D01*
X70976251Y-80379566D01*
X70986866Y-80444335D01*
X71011076Y-80497022D01*
X71045613Y-80530045D01*
X71065191Y-80538066D01*
X71120287Y-80545042D01*
X71177062Y-80536214D01*
X71222256Y-80512872D01*
X71227448Y-80508112D01*
X71259869Y-80459110D01*
X71275558Y-80397405D01*
X71274517Y-80331830D01*
X71268804Y-80312345D01*
X71398193Y-80312345D01*
X71398262Y-80374645D01*
X71398450Y-80397405D01*
X71398828Y-80443157D01*
X71400370Y-80490277D01*
X71403362Y-80519991D01*
X71408277Y-80536282D01*
X71415588Y-80543135D01*
X71425768Y-80544534D01*
X71432678Y-80544092D01*
X71443912Y-80538021D01*
X71450775Y-80520412D01*
X71454778Y-80485730D01*
X71457430Y-80428440D01*
X71461517Y-80312345D01*
X71535395Y-80308092D01*
X71609273Y-80303839D01*
X71609273Y-80424186D01*
X71609463Y-80465215D01*
X71611073Y-80508148D01*
X71615413Y-80532020D01*
X71623767Y-80542320D01*
X71637417Y-80544534D01*
X71645456Y-80543915D01*
X71653614Y-80539114D01*
X71659205Y-80526115D01*
X71662711Y-80500927D01*
X71664617Y-80459562D01*
X71665406Y-80398031D01*
X71665562Y-80312345D01*
X71665486Y-80246024D01*
X71664905Y-80178722D01*
X71663329Y-80132602D01*
X71660276Y-80103674D01*
X71655262Y-80087950D01*
X71647804Y-80081440D01*
X71637417Y-80080157D01*
X71622908Y-80082612D01*
X71614058Y-80094526D01*
X71610151Y-80122124D01*
X71609273Y-80171625D01*
X71609273Y-80263093D01*
X71531877Y-80263093D01*
X71454481Y-80263093D01*
X71454481Y-80171625D01*
X71453726Y-80124471D01*
X71450060Y-80095706D01*
X71441568Y-80083008D01*
X71426337Y-80080157D01*
X71418298Y-80080776D01*
X71410140Y-80085576D01*
X71404550Y-80098576D01*
X71401044Y-80123764D01*
X71399138Y-80165129D01*
X71398349Y-80226660D01*
X71398193Y-80312345D01*
X71268804Y-80312345D01*
X71256746Y-80271216D01*
X71222245Y-80224395D01*
X71205383Y-80212826D01*
X71153679Y-80195471D01*
X71096003Y-80193173D01*
X71045613Y-80207222D01*
X71039552Y-80210856D01*
X71006442Y-80247520D01*
X70984179Y-80302639D01*
X70976032Y-80368633D01*
X70849384Y-80368633D01*
X70849241Y-80308984D01*
X70848258Y-80254942D01*
X70845697Y-80220868D01*
X70840828Y-80202189D01*
X70832920Y-80194335D01*
X70821240Y-80192733D01*
X70804861Y-80196574D01*
X70793096Y-80214639D01*
X70792303Y-80225374D01*
X70784409Y-80228679D01*
X70761821Y-80214639D01*
X70759406Y-80213044D01*
X70722320Y-80198647D01*
X70678187Y-80192733D01*
X70657979Y-80193615D01*
X70625817Y-80202260D01*
X70603946Y-80223322D01*
X70590559Y-80260691D01*
X70583851Y-80318256D01*
X70582016Y-80399909D01*
X70408718Y-80399909D01*
X70407072Y-80395027D01*
X70420446Y-80371030D01*
X70423924Y-80365729D01*
X70440245Y-80316635D01*
X70435074Y-80265695D01*
X70409244Y-80223816D01*
X70390615Y-80209424D01*
X70364976Y-80199666D01*
X70326882Y-80195162D01*
X70268524Y-80194272D01*
X70231834Y-80194851D01*
X70188730Y-80197887D01*
X70166295Y-80204273D01*
X70159855Y-80214894D01*
X70164783Y-80226360D01*
X70187117Y-80234949D01*
X70203029Y-80238395D01*
X70211846Y-80255165D01*
X70213584Y-80292575D01*
X70214604Y-80317871D01*
X70228451Y-80361483D01*
X70261699Y-80391116D01*
X70279217Y-80397405D01*
X70318542Y-80411523D01*
X70329892Y-80414628D01*
X70364943Y-80429868D01*
X70377971Y-80446703D01*
X70377255Y-80450862D01*
X70364296Y-80461389D01*
X70331776Y-80468777D01*
X70275411Y-80474174D01*
X70262886Y-80475096D01*
X70204801Y-80482539D01*
X70169154Y-80495486D01*
X70151152Y-80516708D01*
X70145999Y-80548977D01*
X65585944Y-80548977D01*
X65586300Y-80519118D01*
X65586448Y-80431958D01*
X65586412Y-80404730D01*
X65684952Y-80404730D01*
X65684954Y-80410812D01*
X65685115Y-80431958D01*
X65685424Y-80472579D01*
X65687445Y-80511724D01*
X65692045Y-80533358D01*
X65700252Y-80542592D01*
X65713096Y-80544534D01*
X65713442Y-80544533D01*
X65726273Y-80542441D01*
X65734424Y-80532831D01*
X65738961Y-80510546D01*
X65740950Y-80470431D01*
X65741456Y-80407332D01*
X65741525Y-80391969D01*
X65743888Y-80317054D01*
X65750057Y-80268175D01*
X65760675Y-80243669D01*
X65776380Y-80241876D01*
X65797814Y-80261134D01*
X65799429Y-80263096D01*
X65812735Y-80284654D01*
X65820734Y-80313431D01*
X65824640Y-80356386D01*
X65825672Y-80420476D01*
X65825848Y-80459875D01*
X65827345Y-80505379D01*
X65831237Y-80530851D01*
X65838547Y-80541338D01*
X65850298Y-80541887D01*
X65856527Y-80539935D01*
X65866212Y-80529824D01*
X65872419Y-80507217D01*
X65876217Y-80466899D01*
X65878677Y-80403653D01*
X65880517Y-80346964D01*
X65883705Y-80291216D01*
X65888631Y-80257697D01*
X65896359Y-80242988D01*
X65907951Y-80243670D01*
X65924470Y-80256323D01*
X65930702Y-80262511D01*
X65941855Y-80280219D01*
X65948423Y-80306969D01*
X65951534Y-80349120D01*
X65952321Y-80413031D01*
X65952663Y-80469676D01*
X65954521Y-80510319D01*
X65959023Y-80532835D01*
X65967296Y-80542486D01*
X65980465Y-80544534D01*
X65990008Y-80543639D01*
X65998655Y-80537492D01*
X66004107Y-80521490D01*
X66007096Y-80491060D01*
X66008352Y-80441632D01*
X66008609Y-80368633D01*
X66107113Y-80368633D01*
X66107331Y-80379566D01*
X66117946Y-80444335D01*
X66142157Y-80497022D01*
X66176693Y-80530045D01*
X66196271Y-80538066D01*
X66251367Y-80545042D01*
X66308143Y-80536214D01*
X66353337Y-80512872D01*
X66358528Y-80508112D01*
X66360455Y-80505199D01*
X66517613Y-80505199D01*
X66535481Y-80524373D01*
X66548055Y-80531167D01*
X66591534Y-80541170D01*
X66645875Y-80543155D01*
X66699834Y-80537181D01*
X66742166Y-80523307D01*
X66745542Y-80521370D01*
X66781756Y-80484626D01*
X66807223Y-80429105D01*
X66820123Y-80368633D01*
X67331379Y-80368633D01*
X67331597Y-80379566D01*
X67342212Y-80444335D01*
X67366422Y-80497022D01*
X67400959Y-80530045D01*
X67420537Y-80538066D01*
X67475633Y-80545042D01*
X67532409Y-80536214D01*
X67577603Y-80512872D01*
X67582794Y-80508112D01*
X67615215Y-80459110D01*
X67630905Y-80397405D01*
X67629864Y-80331830D01*
X67612092Y-80271216D01*
X67577591Y-80224395D01*
X67560729Y-80212826D01*
X67539362Y-80205654D01*
X67753539Y-80205654D01*
X67756405Y-80228059D01*
X67775256Y-80249295D01*
X67814170Y-80252007D01*
X67826527Y-80251031D01*
X67863083Y-80257902D01*
X67898199Y-80284942D01*
X67906471Y-80293459D01*
X67922717Y-80314696D01*
X67931747Y-80339783D01*
X67935640Y-80376812D01*
X67935942Y-80397405D01*
X67936476Y-80433876D01*
X67937095Y-80481219D01*
X67940163Y-80519742D01*
X67946673Y-80539173D01*
X67957584Y-80544534D01*
X67957770Y-80544533D01*
X67966656Y-80540220D01*
X67972684Y-80524707D01*
X67973852Y-80514876D01*
X68148709Y-80514876D01*
X68163343Y-80531820D01*
X68178812Y-80538112D01*
X68221632Y-80543935D01*
X68273240Y-80542908D01*
X68321828Y-80535597D01*
X68355586Y-80522571D01*
X68362843Y-80517116D01*
X68402494Y-80468924D01*
X68424456Y-80407164D01*
X68426893Y-80340430D01*
X68640077Y-80340430D01*
X68640077Y-80368633D01*
X68640220Y-80428283D01*
X68641203Y-80482325D01*
X68643764Y-80516399D01*
X68648632Y-80535077D01*
X68656541Y-80542932D01*
X68668221Y-80544534D01*
X68671747Y-80544461D01*
X68683137Y-80541352D01*
X68690346Y-80530005D01*
X68694321Y-80505444D01*
X68696012Y-80462694D01*
X68696365Y-80396778D01*
X68696365Y-80249021D01*
X68745617Y-80249021D01*
X68767851Y-80248101D01*
X68789360Y-80240275D01*
X68794869Y-80220877D01*
X68794044Y-80211004D01*
X68785500Y-80199236D01*
X68762200Y-80193955D01*
X68717473Y-80192733D01*
X68640077Y-80192733D01*
X68640077Y-80340430D01*
X68426893Y-80340430D01*
X68407969Y-80277321D01*
X68398483Y-80260599D01*
X68362634Y-80220754D01*
X68313624Y-80199203D01*
X68245274Y-80192733D01*
X68198016Y-80193864D01*
X68166216Y-80199021D01*
X68154011Y-80210064D01*
X68156894Y-80228837D01*
X68160037Y-80234188D01*
X68180816Y-80242511D01*
X68222766Y-80240163D01*
X68246618Y-80237802D01*
X68285258Y-80242240D01*
X68319415Y-80262333D01*
X68327375Y-80269168D01*
X68359250Y-80316391D01*
X68367589Y-80368633D01*
X68368237Y-80372691D01*
X68352700Y-80429831D01*
X68321373Y-80472850D01*
X68276339Y-80496497D01*
X68216890Y-80496750D01*
X68184403Y-80494895D01*
X68157351Y-80501506D01*
X68148709Y-80514876D01*
X67973852Y-80514876D01*
X67976360Y-80493760D01*
X67978193Y-80443146D01*
X67978692Y-80368633D01*
X67978692Y-80367080D01*
X67978174Y-80293028D01*
X67976312Y-80242800D01*
X67972599Y-80212163D01*
X67966525Y-80196885D01*
X67957584Y-80192733D01*
X67947740Y-80195185D01*
X67936476Y-80213841D01*
X67935090Y-80223526D01*
X67924127Y-80234949D01*
X67914573Y-80231531D01*
X67894260Y-80213841D01*
X67892161Y-80211717D01*
X67868312Y-80200839D01*
X67832755Y-80194225D01*
X67795260Y-80192444D01*
X67765598Y-80196064D01*
X67753539Y-80205654D01*
X67539362Y-80205654D01*
X67509025Y-80195471D01*
X67451349Y-80193173D01*
X67400959Y-80207222D01*
X67394899Y-80210856D01*
X67361788Y-80247520D01*
X67345021Y-80289035D01*
X67339526Y-80302639D01*
X67331379Y-80368633D01*
X66820123Y-80368633D01*
X66821616Y-80361633D01*
X66824610Y-80289035D01*
X66815880Y-80218138D01*
X66795099Y-80155769D01*
X66761942Y-80108753D01*
X66729388Y-80088679D01*
X66723916Y-80087031D01*
X68635825Y-80087031D01*
X68636286Y-80118855D01*
X68643244Y-80128025D01*
X68667888Y-80136445D01*
X68680778Y-80134412D01*
X68700616Y-80115499D01*
X68949661Y-80115499D01*
X68949661Y-80220877D01*
X68949661Y-80311411D01*
X68949739Y-80379049D01*
X68950328Y-80446201D01*
X68951912Y-80492217D01*
X68954971Y-80521077D01*
X68959986Y-80536762D01*
X68967437Y-80543254D01*
X68977805Y-80544534D01*
X68988907Y-80543097D01*
X68996870Y-80535728D01*
X69001956Y-80517984D01*
X69004858Y-80485423D01*
X69006269Y-80433602D01*
X69006881Y-80358079D01*
X69007814Y-80171625D01*
X69037754Y-80252539D01*
X69040282Y-80259299D01*
X69059727Y-80303961D01*
X69077276Y-80326946D01*
X69096716Y-80333453D01*
X69098971Y-80333389D01*
X69118127Y-80325299D01*
X69135924Y-80300067D01*
X69156147Y-80252539D01*
X69186557Y-80171625D01*
X69187721Y-80358079D01*
X69188395Y-80431405D01*
X69189836Y-80483976D01*
X69192721Y-80517133D01*
X69197750Y-80535317D01*
X69205620Y-80542970D01*
X69217030Y-80544534D01*
X69225069Y-80543915D01*
X69233226Y-80539114D01*
X69238817Y-80526115D01*
X69242323Y-80500927D01*
X69244229Y-80459562D01*
X69245018Y-80398031D01*
X69245072Y-80368633D01*
X69765839Y-80368633D01*
X69766057Y-80379566D01*
X69776672Y-80444335D01*
X69800882Y-80497022D01*
X69835419Y-80530045D01*
X69854997Y-80538066D01*
X69910093Y-80545042D01*
X69966869Y-80536214D01*
X70012063Y-80512872D01*
X70017254Y-80508112D01*
X70049675Y-80459110D01*
X70065364Y-80397405D01*
X70064324Y-80331830D01*
X70046552Y-80271216D01*
X70012051Y-80224395D01*
X69995189Y-80212826D01*
X69943485Y-80195471D01*
X69885809Y-80193173D01*
X69835419Y-80207222D01*
X69829358Y-80210856D01*
X69796248Y-80247520D01*
X69773986Y-80302639D01*
X69772788Y-80312345D01*
X69765839Y-80368633D01*
X69245072Y-80368633D01*
X69245174Y-80312345D01*
X69245174Y-80080157D01*
X69202958Y-80080157D01*
X69202439Y-80080158D01*
X69172972Y-80084191D01*
X69160742Y-80093701D01*
X69157510Y-80111908D01*
X69146662Y-80145918D01*
X69131386Y-80185348D01*
X69115047Y-80222180D01*
X69101011Y-80248395D01*
X69092643Y-80255974D01*
X69085724Y-80243723D01*
X69071817Y-80211095D01*
X69055320Y-80167053D01*
X69045574Y-80140666D01*
X69029138Y-80106258D01*
X69011811Y-80089147D01*
X68988359Y-80082740D01*
X68949661Y-80078288D01*
X68949661Y-80115499D01*
X68700616Y-80115499D01*
X68700155Y-80083675D01*
X68693197Y-80074505D01*
X68668554Y-80066085D01*
X68655664Y-80068119D01*
X68635825Y-80087031D01*
X66723916Y-80087031D01*
X66685372Y-80075423D01*
X66636661Y-80069210D01*
X66589670Y-80069937D01*
X66550815Y-80077496D01*
X66526510Y-80091783D01*
X66523169Y-80112691D01*
X66531738Y-80121620D01*
X66561832Y-80129091D01*
X66616040Y-80130732D01*
X66657019Y-80130842D01*
X66690135Y-80135077D01*
X66711790Y-80146710D01*
X66731211Y-80168791D01*
X66747391Y-80196145D01*
X66758033Y-80236888D01*
X66761202Y-80295439D01*
X66754662Y-80378122D01*
X66748339Y-80397405D01*
X66733882Y-80441489D01*
X66699457Y-80481406D01*
X66652002Y-80497174D01*
X66592130Y-80488091D01*
X66574611Y-80482750D01*
X66543352Y-80478487D01*
X66524460Y-80487674D01*
X66524015Y-80488130D01*
X66517613Y-80505199D01*
X66360455Y-80505199D01*
X66390949Y-80459110D01*
X66406639Y-80397405D01*
X66405598Y-80331830D01*
X66387826Y-80271216D01*
X66353325Y-80224395D01*
X66336463Y-80212826D01*
X66284759Y-80195471D01*
X66227083Y-80193173D01*
X66176693Y-80207222D01*
X66170633Y-80210856D01*
X66137522Y-80247520D01*
X66115260Y-80302639D01*
X66107113Y-80368633D01*
X66008609Y-80368633D01*
X66008465Y-80308984D01*
X66007482Y-80254942D01*
X66004922Y-80220868D01*
X66000053Y-80202189D01*
X65992144Y-80194335D01*
X65980465Y-80192733D01*
X65964078Y-80195912D01*
X65952321Y-80209620D01*
X65949378Y-80219410D01*
X65935434Y-80209620D01*
X65908708Y-80195469D01*
X65870501Y-80195858D01*
X65839450Y-80214196D01*
X65833173Y-80221330D01*
X65818133Y-80228322D01*
X65797921Y-80214196D01*
X65792987Y-80210008D01*
X65755774Y-80193275D01*
X65721771Y-80199927D01*
X65698676Y-80228829D01*
X65695254Y-80242259D01*
X65689958Y-80283799D01*
X65686310Y-80340694D01*
X65684952Y-80404730D01*
X65586412Y-80404730D01*
X65586348Y-80355787D01*
X65585713Y-80289588D01*
X65584079Y-80244239D01*
X65580983Y-80215809D01*
X65575964Y-80200369D01*
X65568558Y-80193987D01*
X65558304Y-80192733D01*
X65541941Y-80195466D01*
X65530160Y-80207300D01*
X65525344Y-80214680D01*
X65502941Y-80207300D01*
X65464319Y-80195878D01*
X65413423Y-80193373D01*
X65368962Y-80201474D01*
X65351820Y-80211888D01*
X65325939Y-80248477D01*
X65310115Y-80300644D01*
X65306821Y-80337358D01*
X65304683Y-80361196D01*
X65177824Y-80361196D01*
X65178359Y-80337358D01*
X65178352Y-80323691D01*
X65177807Y-80263140D01*
X65175699Y-80224796D01*
X65171050Y-80203632D01*
X65162882Y-80194620D01*
X65150215Y-80192733D01*
X65149593Y-80192735D01*
X65136886Y-80194897D01*
X65128830Y-80204624D01*
X65124375Y-80227061D01*
X65122472Y-80267352D01*
X65122071Y-80330639D01*
X65120973Y-80395241D01*
X65116104Y-80448322D01*
X65106054Y-80481091D01*
X65089436Y-80497704D01*
X65064866Y-80502318D01*
X65064173Y-80502306D01*
X65036846Y-80493470D01*
X65004357Y-80473152D01*
X64988669Y-80459603D01*
X64976866Y-80442683D01*
X64970453Y-80418039D01*
X64967801Y-80378867D01*
X64967279Y-80318360D01*
X64967020Y-80269852D01*
X64965289Y-80228047D01*
X64960867Y-80204843D01*
X64952550Y-80194864D01*
X64939135Y-80192733D01*
X64929591Y-80193628D01*
X64920944Y-80199775D01*
X64915492Y-80215777D01*
X64914991Y-80220877D01*
X64912504Y-80246206D01*
X64911247Y-80295635D01*
X64910991Y-80368633D01*
X64699798Y-80368633D01*
X64699911Y-80365502D01*
X64700055Y-80330065D01*
X64701570Y-80286251D01*
X64705843Y-80261853D01*
X64714223Y-80251301D01*
X64728055Y-80249021D01*
X64746248Y-80244396D01*
X64756199Y-80220877D01*
X64751828Y-80203114D01*
X64728946Y-80192733D01*
X64722941Y-80192348D01*
X64705205Y-80180364D01*
X64697284Y-80146999D01*
X64689189Y-80114352D01*
X64671766Y-80101265D01*
X64655665Y-80111985D01*
X64646249Y-80146999D01*
X64645365Y-80155508D01*
X64639099Y-80180694D01*
X64622404Y-80190850D01*
X64586443Y-80192733D01*
X64555204Y-80194242D01*
X64535853Y-80202349D01*
X64531046Y-80220877D01*
X64534233Y-80237122D01*
X64550509Y-80246661D01*
X64587334Y-80249021D01*
X64643622Y-80249021D01*
X64643622Y-80349853D01*
X64643622Y-80359874D01*
X64642140Y-80416918D01*
X64634893Y-80464166D01*
X64619232Y-80490557D01*
X64592567Y-80499958D01*
X64552309Y-80496239D01*
X64534091Y-80493331D01*
X64509686Y-80494451D01*
X64502902Y-80507210D01*
X64318336Y-80507210D01*
X64320233Y-80505836D01*
X64345615Y-80475770D01*
X64370272Y-80416320D01*
X64375594Y-80349853D01*
X64361362Y-80284808D01*
X64327358Y-80229627D01*
X64284251Y-80200548D01*
X64229564Y-80190088D01*
X64174644Y-80199900D01*
X64129322Y-80229968D01*
X64125949Y-80233714D01*
X64103789Y-80264833D01*
X64094621Y-80289774D01*
X64092950Y-80308606D01*
X64085944Y-80344007D01*
X64083065Y-80359097D01*
X63911821Y-80359097D01*
X63911360Y-80293028D01*
X63909498Y-80242800D01*
X63905784Y-80212163D01*
X63899711Y-80196885D01*
X63890769Y-80192733D01*
X63880925Y-80195185D01*
X63869661Y-80213841D01*
X63868276Y-80223526D01*
X63857312Y-80234949D01*
X63847759Y-80231531D01*
X63827445Y-80213841D01*
X63825347Y-80211717D01*
X63801498Y-80200839D01*
X63765941Y-80194225D01*
X63728446Y-80192444D01*
X63698784Y-80196064D01*
X63686725Y-80205654D01*
X63167066Y-80205654D01*
X63150445Y-80155769D01*
X63117289Y-80108753D01*
X63084734Y-80088679D01*
X63040718Y-80075423D01*
X62992007Y-80069210D01*
X62945017Y-80069937D01*
X62906161Y-80077496D01*
X62881856Y-80091783D01*
X62880341Y-80101265D01*
X62878516Y-80112691D01*
X62887084Y-80121620D01*
X62917178Y-80129091D01*
X62971386Y-80130732D01*
X63012365Y-80130842D01*
X63045482Y-80135077D01*
X63067136Y-80146710D01*
X63086557Y-80168791D01*
X63102738Y-80196145D01*
X63113380Y-80236888D01*
X63116548Y-80295439D01*
X63110008Y-80378122D01*
X63089228Y-80441489D01*
X63054803Y-80481406D01*
X63007348Y-80497174D01*
X62947476Y-80488091D01*
X62929957Y-80482750D01*
X62898698Y-80478487D01*
X62879806Y-80487674D01*
X62879362Y-80488130D01*
X62872959Y-80505199D01*
X62645395Y-80505199D01*
X62645395Y-80333453D01*
X62645395Y-80122373D01*
X62687611Y-80122373D01*
X62717241Y-80118023D01*
X62729827Y-80101265D01*
X62725325Y-80090240D01*
X62703714Y-80082417D01*
X62659467Y-80080157D01*
X62589107Y-80080157D01*
X62589107Y-80284201D01*
X62589107Y-80337358D01*
X62589107Y-80488246D01*
X62546891Y-80488246D01*
X62535994Y-80488536D01*
X62511309Y-80495789D01*
X62504675Y-80516390D01*
X62311342Y-80516390D01*
X62313881Y-80513945D01*
X62327268Y-80476576D01*
X62333976Y-80419010D01*
X62335811Y-80337358D01*
X62335803Y-80323691D01*
X62335258Y-80263140D01*
X62333151Y-80224796D01*
X62328502Y-80203632D01*
X62320333Y-80194620D01*
X62307667Y-80192733D01*
X62307044Y-80192735D01*
X62294337Y-80194897D01*
X62286281Y-80204624D01*
X62281827Y-80227061D01*
X62279924Y-80267352D01*
X62279523Y-80330639D01*
X62278424Y-80395241D01*
X62273556Y-80448322D01*
X62263505Y-80481091D01*
X62246888Y-80497704D01*
X62222318Y-80502318D01*
X62221625Y-80502306D01*
X62194298Y-80493470D01*
X62161808Y-80473152D01*
X62146121Y-80459603D01*
X62134317Y-80442683D01*
X62127905Y-80418039D01*
X62125252Y-80378867D01*
X62124730Y-80318360D01*
X62124472Y-80269852D01*
X62122740Y-80228047D01*
X62118318Y-80204843D01*
X62110002Y-80194864D01*
X62096586Y-80192733D01*
X62087043Y-80193628D01*
X62078396Y-80199775D01*
X62072944Y-80215777D01*
X62069955Y-80246206D01*
X62068699Y-80295635D01*
X62068640Y-80312345D01*
X62068442Y-80368633D01*
X61927620Y-80368633D01*
X61927722Y-80312345D01*
X61927647Y-80246024D01*
X61927065Y-80178722D01*
X61925490Y-80132602D01*
X61922436Y-80103674D01*
X61917423Y-80087950D01*
X61909964Y-80081440D01*
X61899578Y-80080157D01*
X61892800Y-80080488D01*
X61879103Y-80087420D01*
X61872895Y-80108629D01*
X61871434Y-80151012D01*
X61871149Y-80179709D01*
X61868324Y-80206184D01*
X61860239Y-80213534D01*
X61844215Y-80207300D01*
X61805593Y-80195878D01*
X61754697Y-80193373D01*
X61710236Y-80201474D01*
X61693094Y-80211888D01*
X61667213Y-80248477D01*
X61651389Y-80300644D01*
X61645957Y-80361196D01*
X54958097Y-80361196D01*
X54948552Y-80322936D01*
X54922874Y-80219787D01*
X54897667Y-80118320D01*
X54873841Y-80022195D01*
X54852306Y-79935072D01*
X54833972Y-79860609D01*
X54819749Y-79802468D01*
X54810548Y-79764306D01*
X54807279Y-79749785D01*
X54815814Y-79749466D01*
X54851245Y-79749053D01*
X54913510Y-79748636D01*
X55001876Y-79748215D01*
X55115606Y-79747792D01*
X55253965Y-79747367D01*
X55416219Y-79746941D01*
X55601633Y-79746516D01*
X55809472Y-79746091D01*
X56038999Y-79745668D01*
X56289482Y-79745248D01*
X56560184Y-79744831D01*
X56850370Y-79744419D01*
X57159306Y-79744012D01*
X57486256Y-79743611D01*
X57830486Y-79743218D01*
X58191260Y-79742832D01*
X58567844Y-79742454D01*
X58959502Y-79742087D01*
X59365500Y-79741729D01*
X59785101Y-79741383D01*
X60217573Y-79741050D01*
X60662178Y-79740729D01*
X61118183Y-79740422D01*
X61584852Y-79740130D01*
X62061451Y-79739853D01*
X62547244Y-79739593D01*
X63041496Y-79739351D01*
X63543472Y-79739126D01*
X64052438Y-79738921D01*
X73297597Y-79735392D01*
X73209295Y-79633149D01*
X73194176Y-79615409D01*
X73150504Y-79558962D01*
X73120469Y-79506956D01*
X73100978Y-79451253D01*
X73088940Y-79383713D01*
X73081260Y-79296196D01*
X73080883Y-79290499D01*
X73073587Y-79200129D01*
X73063833Y-79105009D01*
X73052619Y-79013352D01*
X73040944Y-78933371D01*
X73029808Y-78873279D01*
X73026220Y-78854419D01*
X73019215Y-78796903D01*
X73016394Y-78739595D01*
X73015439Y-78708115D01*
X73010227Y-78643323D01*
X73002008Y-78581487D01*
X73000280Y-78571027D01*
X72991352Y-78511552D01*
X72981663Y-78440279D01*
X72973028Y-78370406D01*
X72971616Y-78358268D01*
X72962789Y-78283797D01*
X72953565Y-78207892D01*
X72945727Y-78145254D01*
X72944718Y-78137298D01*
X72937962Y-78081582D01*
X72929405Y-78008162D01*
X72920041Y-77925662D01*
X72910864Y-77842705D01*
X72904237Y-77781950D01*
X72884219Y-77599100D01*
X72866851Y-77441677D01*
X72851909Y-77307715D01*
X72839168Y-77195247D01*
X72828405Y-77102307D01*
X72819395Y-77026928D01*
X72811914Y-76967144D01*
X72805737Y-76920988D01*
X72805102Y-76916416D01*
X72797921Y-76861823D01*
X72788856Y-76789182D01*
X72779003Y-76707423D01*
X72769458Y-76625476D01*
X72758684Y-76531451D01*
X72745429Y-76417235D01*
X72733354Y-76315327D01*
X72721370Y-76216580D01*
X72708391Y-76111847D01*
X72705641Y-76088581D01*
X72699890Y-76007309D01*
X72703815Y-75944074D01*
X72718369Y-75891800D01*
X72744503Y-75843413D01*
X72771167Y-75808492D01*
X72804784Y-75779173D01*
X72847760Y-75757198D01*
X72904790Y-75740809D01*
X72980572Y-75728245D01*
X73079800Y-75717745D01*
X73113938Y-75714684D01*
X73212903Y-75705634D01*
X73305192Y-75696860D01*
X73399465Y-75687506D01*
X73504383Y-75676720D01*
X73628609Y-75663648D01*
X73667377Y-75659691D01*
X73739825Y-75652682D01*
X73827048Y-75644546D01*
X73921337Y-75636000D01*
X74014987Y-75627760D01*
X74094474Y-75620597D01*
X74170876Y-75613119D01*
X74234182Y-75606296D01*
X74279408Y-75600670D01*
X74301567Y-75596778D01*
X74311769Y-75592478D01*
X74321414Y-75580068D01*
X74323426Y-75554632D01*
X74319287Y-75508805D01*
X74310329Y-75427562D01*
X74298431Y-75309281D01*
X74287510Y-75189122D01*
X74277866Y-75071349D01*
X74269805Y-74960226D01*
X74267746Y-74926813D01*
X78026679Y-74926813D01*
X78026698Y-74988076D01*
X78027155Y-75064868D01*
X78028063Y-75157931D01*
X78029437Y-75268007D01*
X78031290Y-75395837D01*
X78033634Y-75542163D01*
X78036482Y-75707727D01*
X78039848Y-75893269D01*
X78043746Y-76099532D01*
X78048187Y-76327257D01*
X78053185Y-76577186D01*
X78058754Y-76850060D01*
X78064907Y-77146621D01*
X78071656Y-77467611D01*
X78079015Y-77813770D01*
X78086998Y-78185841D01*
X78095616Y-78584565D01*
X78104884Y-79010683D01*
X78112286Y-79348646D01*
X78119667Y-79682770D01*
X78126928Y-80008666D01*
X78133753Y-80312345D01*
X78134043Y-80325226D01*
X78139729Y-80575904D01*
X78140986Y-80631345D01*
X78147729Y-80925917D01*
X78154246Y-81207836D01*
X78160510Y-81475995D01*
X78166495Y-81729288D01*
X78172174Y-81966611D01*
X78177521Y-82186856D01*
X78182508Y-82388917D01*
X78187109Y-82571689D01*
X78191298Y-82734065D01*
X78195047Y-82874940D01*
X78198331Y-82993208D01*
X78201122Y-83087761D01*
X78203393Y-83157496D01*
X78205119Y-83201304D01*
X78206272Y-83218081D01*
X78218194Y-83241614D01*
X78237487Y-83255521D01*
X78241360Y-83253710D01*
X78266166Y-83239124D01*
X78312596Y-83210652D01*
X78379278Y-83169170D01*
X78464842Y-83115553D01*
X78567918Y-83050676D01*
X78687135Y-82975414D01*
X78821123Y-82890642D01*
X78968511Y-82797236D01*
X79127929Y-82696070D01*
X79298005Y-82588020D01*
X79477371Y-82473962D01*
X79664654Y-82354770D01*
X79858484Y-82231320D01*
X80057491Y-82104486D01*
X80260305Y-81975145D01*
X80465554Y-81844171D01*
X80671869Y-81712439D01*
X80877878Y-81580825D01*
X81082212Y-81450204D01*
X81283499Y-81321451D01*
X81480369Y-81195441D01*
X81671452Y-81073050D01*
X81855377Y-80955153D01*
X82030774Y-80842624D01*
X82196271Y-80736340D01*
X82350499Y-80637175D01*
X82492087Y-80546005D01*
X82619664Y-80463705D01*
X82731860Y-80391150D01*
X82827304Y-80329215D01*
X82904626Y-80278775D01*
X82962455Y-80240706D01*
X82999420Y-80215883D01*
X83014152Y-80205181D01*
X83016371Y-80196410D01*
X83021203Y-80161218D01*
X83027916Y-80100774D01*
X83036382Y-80016693D01*
X83046473Y-79910590D01*
X83058059Y-79784079D01*
X83071013Y-79638777D01*
X83085206Y-79476297D01*
X83100511Y-79298256D01*
X83116798Y-79106267D01*
X83133939Y-78901947D01*
X83151806Y-78686910D01*
X83170270Y-78462772D01*
X83189203Y-78231147D01*
X83208477Y-77993651D01*
X83227963Y-77751898D01*
X83247534Y-77507505D01*
X83267059Y-77262085D01*
X83286412Y-77017254D01*
X83305464Y-76774627D01*
X83324086Y-76535819D01*
X83342150Y-76302445D01*
X83359528Y-76076120D01*
X83376091Y-75858460D01*
X83391711Y-75651079D01*
X83406260Y-75455593D01*
X83419608Y-75273616D01*
X83431629Y-75106764D01*
X83442193Y-74956652D01*
X83451171Y-74824894D01*
X83458437Y-74713107D01*
X83463861Y-74622904D01*
X83467314Y-74555902D01*
X83468669Y-74513714D01*
X83467798Y-74497957D01*
X83455892Y-74496937D01*
X83417326Y-74497340D01*
X83353759Y-74499356D01*
X83266847Y-74502887D01*
X83158251Y-74507833D01*
X83029628Y-74514096D01*
X82882637Y-74521577D01*
X82718937Y-74530176D01*
X82540184Y-74539796D01*
X82348039Y-74550336D01*
X82144160Y-74561698D01*
X81930204Y-74573784D01*
X81707830Y-74586493D01*
X81478698Y-74599727D01*
X81244464Y-74613388D01*
X81006788Y-74627376D01*
X80767328Y-74641593D01*
X80527742Y-74655938D01*
X80289690Y-74670315D01*
X80054828Y-74684622D01*
X79824816Y-74698763D01*
X79601312Y-74712637D01*
X79385975Y-74726146D01*
X79180462Y-74739190D01*
X78986433Y-74751671D01*
X78805546Y-74763491D01*
X78639458Y-74774549D01*
X78489829Y-74784747D01*
X78358318Y-74793986D01*
X78246581Y-74802168D01*
X78156279Y-74809192D01*
X78089068Y-74814961D01*
X78046609Y-74819375D01*
X78030558Y-74822336D01*
X78029127Y-74828787D01*
X78027907Y-74847910D01*
X78027087Y-74880339D01*
X78026679Y-74926813D01*
X74267746Y-74926813D01*
X74263630Y-74860018D01*
X74259643Y-74774990D01*
X74258148Y-74709406D01*
X74259449Y-74667530D01*
X74262916Y-74640521D01*
X74288056Y-74555619D01*
X74334385Y-74486165D01*
X74346046Y-74474017D01*
X74381518Y-74444846D01*
X74424528Y-74421726D01*
X74479197Y-74403481D01*
X74549646Y-74388935D01*
X74639997Y-74376910D01*
X74754370Y-74366230D01*
X74758681Y-74365878D01*
X74902954Y-74353819D01*
X75049138Y-74341055D01*
X75192237Y-74328058D01*
X75327256Y-74315300D01*
X75449199Y-74303254D01*
X75553069Y-74292389D01*
X75633872Y-74283179D01*
X75639889Y-74282461D01*
X75711728Y-74275447D01*
X75786084Y-74270453D01*
X75847777Y-74268519D01*
X75894148Y-74267250D01*
X75957848Y-74262522D01*
X76009606Y-74255515D01*
X76041654Y-74250889D01*
X76104653Y-74244635D01*
X76191184Y-74237912D01*
X76298705Y-74230864D01*
X76424674Y-74223635D01*
X76566548Y-74216370D01*
X76721786Y-74209212D01*
X76887844Y-74202306D01*
X77062182Y-74195797D01*
X77139071Y-74193066D01*
X77267621Y-74188430D01*
X77399657Y-74183594D01*
X77527273Y-74178850D01*
X77642568Y-74174492D01*
X77737639Y-74170811D01*
X77816824Y-74167706D01*
X77927352Y-74163402D01*
X78052341Y-74158559D01*
X78184508Y-74153460D01*
X78316569Y-74148385D01*
X78441240Y-74143616D01*
X78443911Y-74143514D01*
X78562593Y-74138749D01*
X78683000Y-74133506D01*
X78799162Y-74128073D01*
X78905108Y-74122740D01*
X78994867Y-74117796D01*
X79062470Y-74113530D01*
X79068943Y-74113080D01*
X79154292Y-74107810D01*
X79240960Y-74103513D01*
X79319157Y-74100621D01*
X79379091Y-74099566D01*
X79452652Y-74097694D01*
X79535871Y-74092639D01*
X79609218Y-74085513D01*
X79628597Y-74083358D01*
X79687044Y-74078211D01*
X79765107Y-74072494D01*
X79857040Y-74066588D01*
X79957095Y-74060873D01*
X80059523Y-74055729D01*
X80104215Y-74053636D01*
X80311954Y-74043515D01*
X80491944Y-74034029D01*
X80644510Y-74025160D01*
X80769976Y-74016889D01*
X80868664Y-74009198D01*
X80888498Y-74007649D01*
X80947831Y-74003956D01*
X81032047Y-73999605D01*
X81141612Y-73994577D01*
X81276988Y-73988852D01*
X81438640Y-73982411D01*
X81627032Y-73975235D01*
X81842629Y-73967305D01*
X82085894Y-73958601D01*
X82095946Y-73958241D01*
X82209159Y-73953772D01*
X82329984Y-73948342D01*
X82449486Y-73942395D01*
X82558729Y-73936374D01*
X82648775Y-73930720D01*
X82678622Y-73928673D01*
X82736115Y-73924792D01*
X82787662Y-73921484D01*
X82836671Y-73918616D01*
X82886549Y-73916052D01*
X82940705Y-73913659D01*
X83002546Y-73911302D01*
X83075480Y-73908848D01*
X83162917Y-73906161D01*
X83268262Y-73903108D01*
X83394925Y-73899555D01*
X83546314Y-73895367D01*
X83641762Y-73892794D01*
X83748570Y-73890398D01*
X83832515Y-73889680D01*
X83896623Y-73891109D01*
X83943922Y-73895155D01*
X83977441Y-73902287D01*
X84000207Y-73912976D01*
X84015249Y-73927692D01*
X84025593Y-73946904D01*
X84034269Y-73971082D01*
X84036303Y-73978229D01*
X84042113Y-74017736D01*
X84044868Y-74077501D01*
X84044518Y-74158376D01*
X84041014Y-74261213D01*
X84034303Y-74386864D01*
X84025837Y-74513714D01*
X84024338Y-74536180D01*
G37*
%TD*%
M02*
