%TF.GenerationSoftware,KiCad,Pcbnew,7.0.8*%
%TF.CreationDate,2024-02-24T16:57:54+09:00*%
%TF.ProjectId,ch552t_tinypad_board,63683535-3274-45f7-9469-6e797061645f,rev?*%
%TF.SameCoordinates,Original*%
%TF.FileFunction,Soldermask,Bot*%
%TF.FilePolarity,Negative*%
%FSLAX46Y46*%
G04 Gerber Fmt 4.6, Leading zero omitted, Abs format (unit mm)*
G04 Created by KiCad (PCBNEW 7.0.8) date 2024-02-24 16:57:54*
%MOMM*%
%LPD*%
G01*
G04 APERTURE LIST*
%ADD10C,0.800000*%
%ADD11C,6.400000*%
%ADD12C,1.600000*%
%ADD13O,1.600000X1.600000*%
%ADD14R,1.700000X1.700000*%
%ADD15O,1.700000X1.700000*%
%ADD16C,1.700000*%
%ADD17C,4.000000*%
%ADD18C,2.200000*%
%ADD19C,0.650000*%
%ADD20O,1.000000X2.100000*%
%ADD21O,1.000000X1.800000*%
%ADD22C,0.750000*%
%ADD23R,1.800000X1.800000*%
%ADD24C,1.800000*%
G04 APERTURE END LIST*
D10*
%TO.C,H3*%
X41600000Y-81000000D03*
X42302944Y-79302944D03*
X42302944Y-82697056D03*
X44000000Y-78600000D03*
D11*
X44000000Y-81000000D03*
D10*
X44000000Y-83400000D03*
X45697056Y-79302944D03*
X45697056Y-82697056D03*
X46400000Y-81000000D03*
%TD*%
D12*
%TO.C,R1*%
X102708876Y-38461700D03*
D13*
X92548876Y-38461700D03*
%TD*%
D14*
%TO.C,J1*%
X41757600Y-50800000D03*
D15*
X44297600Y-50800000D03*
X41757600Y-53340000D03*
X44297600Y-53340000D03*
X41757600Y-55880000D03*
X44297600Y-55880000D03*
X41757600Y-58420000D03*
X44297600Y-58420000D03*
X41757600Y-60960000D03*
X44297600Y-60960000D03*
X41757600Y-63500000D03*
X44297600Y-63500000D03*
X41757600Y-66040000D03*
X44297600Y-66040000D03*
X41757600Y-68580000D03*
X44297600Y-68580000D03*
X41757600Y-71120000D03*
X44297600Y-71120000D03*
X41757600Y-73660000D03*
X44297600Y-73660000D03*
%TD*%
D10*
%TO.C,H1*%
X41600000Y-36000000D03*
X42302944Y-34302944D03*
X42302944Y-37697056D03*
X44000000Y-33600000D03*
D11*
X44000000Y-36000000D03*
D10*
X44000000Y-38400000D03*
X45697056Y-34302944D03*
X45697056Y-37697056D03*
X46400000Y-36000000D03*
%TD*%
D16*
%TO.C,SW6*%
X106560000Y-71120000D03*
D17*
X111640000Y-71120000D03*
D16*
X116720000Y-71120000D03*
D18*
X114180000Y-66040000D03*
X107830000Y-68580000D03*
%TD*%
D12*
%TO.C,R3*%
X74627824Y-34842700D03*
D13*
X84787824Y-34842700D03*
%TD*%
D12*
%TO.C,R2*%
X84831076Y-38455600D03*
D13*
X74671076Y-38455600D03*
%TD*%
D16*
%TO.C,SW4*%
X66141600Y-71120000D03*
D17*
X71221600Y-71120000D03*
D16*
X76301600Y-71120000D03*
D18*
X73761600Y-66040000D03*
X67411600Y-68580000D03*
%TD*%
D16*
%TO.C,SW2*%
X86360000Y-50920000D03*
D17*
X91440000Y-50920000D03*
D16*
X96520000Y-50920000D03*
D18*
X93980000Y-45840000D03*
X87630000Y-48380000D03*
%TD*%
D19*
%TO.C,J2*%
X56984000Y-36641000D03*
X51204000Y-36641000D03*
D20*
X58414000Y-37141000D03*
D21*
X58414000Y-32961000D03*
D20*
X49774000Y-37141000D03*
D21*
X49774000Y-32961000D03*
%TD*%
D12*
%TO.C,C1*%
X46309053Y-42824400D03*
X41309053Y-42824400D03*
%TD*%
%TO.C,R4*%
X92534824Y-34868100D03*
D13*
X102694824Y-34868100D03*
%TD*%
D10*
%TO.C,H2*%
X122600000Y-36000000D03*
X123302944Y-34302944D03*
X123302944Y-37697056D03*
X125000000Y-33600000D03*
D11*
X125000000Y-36000000D03*
D10*
X125000000Y-38400000D03*
X126697056Y-34302944D03*
X126697056Y-37697056D03*
X127400000Y-36000000D03*
%TD*%
D16*
%TO.C,SW3*%
X106578400Y-50952400D03*
D17*
X111658400Y-50952400D03*
D16*
X116738400Y-50952400D03*
D18*
X114198400Y-45872400D03*
X107848400Y-48412400D03*
%TD*%
D16*
%TO.C,SW5*%
X86360000Y-71120000D03*
D17*
X91440000Y-71120000D03*
D16*
X96520000Y-71120000D03*
D18*
X93980000Y-66040000D03*
X87630000Y-68580000D03*
%TD*%
D10*
%TO.C,H4*%
X122600000Y-81000000D03*
X123302944Y-79302944D03*
X123302944Y-82697056D03*
X125000000Y-78600000D03*
D11*
X125000000Y-81000000D03*
D10*
X125000000Y-83400000D03*
X126697056Y-79302944D03*
X126697056Y-82697056D03*
X127400000Y-81000000D03*
%TD*%
D12*
%TO.C,C2*%
X46320947Y-45964000D03*
X41320947Y-45964000D03*
%TD*%
D16*
%TO.C,SW1*%
X66160000Y-50920000D03*
D17*
X71240000Y-50920000D03*
D16*
X76320000Y-50920000D03*
D18*
X73780000Y-45840000D03*
X67430000Y-48380000D03*
%TD*%
D22*
%TO.C,SW7*%
X67822876Y-37655600D03*
X67822876Y-39255600D03*
%TD*%
D23*
%TO.C,D1*%
X108498876Y-38455600D03*
D24*
X111038876Y-38455600D03*
%TD*%
M02*
